<?xml version="1.0" standalone="no"?>
<!DOCTYPE svg PUBLIC "-//W3C//DTD SVG 20010904//EN"
 "http://www.w3.org/TR/2001/REC-SVG-20010904/DTD/svg10.dtd">
<svg version="1.0" xmlns="http://www.w3.org/2000/svg"
 width="2000.000000pt" height="60.000000pt" viewBox="0 0 2000.000000 60.000000"
 preserveAspectRatio="xMidYMid meet">
<metadata>
Created by potrace 1.16, written by Peter Selinger 2001-2019
</metadata>
<g transform="translate(0.000000,60.000000) scale(0.100000,-0.100000)"
fill="#ffffff" stroke="none">
<path d="M712 496 c-31 -33 -56 -73 -71 -113 -13 -35 -25 -63 -27 -63 -2 0
-24 40 -48 88 l-45 89 -65 21 c-38 13 -92 22 -126 22 -56 0 -61 -2 -72 -27 -6
-16 -41 -93 -78 -173 -37 -80 -73 -159 -79 -177 -16 -41 -67 -56 -88 -27 -13
17 -14 15 -11 -18 2 -41 8 -44 79 -32 34 6 39 11 65 73 37 90 124 264 129 259
2 -2 23 -49 46 -103 22 -55 59 -132 81 -172 l41 -71 136 -7 c75 -3 143 -8 152
-11 22 -6 104 100 130 170 12 31 24 55 26 53 2 -2 23 -45 47 -94 42 -85 47
-91 88 -105 24 -8 84 -16 133 -17 50 -1 100 -4 111 -7 19 -5 24 1 38 43 8 26
22 94 30 150 18 134 62 233 101 233 22 0 29 -7 43 -42 41 -108 186 -368 205
-368 6 0 35 10 64 22 l52 21 35 92 c47 124 111 242 120 220 3 -9 6 -23 6 -31
0 -28 89 -227 126 -280 l37 -54 154 0 153 0 45 70 c25 39 45 72 45 74 0 2 7
20 15 40 l15 36 54 -103 54 -102 108 -7 c60 -3 130 -9 156 -12 l47 -7 11 38
c6 21 18 90 26 153 17 129 60 240 91 240 31 0 41 -13 69 -90 43 -116 156 -309
190 -324 7 -2 38 15 71 38 52 38 60 49 76 102 22 69 92 218 112 234 10 9 14 0
20 -42 11 -88 81 -246 133 -300 38 -40 49 -46 76 -41 17 2 85 7 151 11 l119 7
53 101 52 102 40 -82 c71 -141 61 -135 235 -137 118 -2 150 1 156 12 9 15 35
170 46 264 6 59 45 145 65 145 32 0 60 -36 80 -104 39 -133 155 -306 205 -306
5 0 35 26 66 58 48 49 60 69 83 142 26 79 92 197 103 185 3 -3 11 -42 18 -87
18 -119 78 -247 134 -284 39 -26 47 -28 148 -25 69 1 123 8 150 18 40 15 47
23 91 111 l48 95 23 -59 c31 -79 108 -177 133 -169 7 2 72 6 146 9 96 4 137 9
142 18 4 7 18 89 30 182 17 123 29 176 42 193 24 29 30 29 66 -4 21 -20 37
-52 55 -113 27 -90 112 -239 144 -252 47 -19 69 -9 120 54 37 45 59 86 83 152
31 89 87 181 101 168 4 -4 12 -50 19 -102 10 -75 21 -113 53 -180 51 -106 62
-112 221 -120 l120 -6 46 33 c38 27 51 46 79 110 17 43 34 80 36 82 2 2 19
-31 39 -74 24 -54 48 -89 77 -114 40 -35 42 -35 122 -32 105 4 132 6 183 15
48 9 43 -8 73 211 25 178 26 181 48 190 32 13 84 -62 114 -163 21 -72 37 -106
82 -166 31 -42 59 -76 64 -75 68 7 153 114 203 256 29 82 79 156 95 141 6 -7
33 -176 35 -218 0 -14 19 -59 42 -100 l43 -75 149 -11 150 -11 47 50 c27 28
56 73 69 106 12 31 25 60 29 64 4 4 25 -33 48 -83 39 -84 45 -92 86 -110 33
-14 73 -19 155 -21 104 -2 112 -1 150 24 46 31 43 20 71 226 11 85 23 158 26
162 24 39 100 -69 137 -195 23 -76 34 -97 83 -152 30 -35 58 -64 61 -64 2 0
19 12 38 26 42 32 136 186 171 282 16 44 37 80 53 93 l26 21 11 -39 c6 -21 17
-87 24 -145 12 -98 16 -112 54 -170 l41 -63 155 -2 155 -3 42 63 c23 34 51 84
61 112 l20 50 50 -102 51 -101 53 -6 c29 -3 98 -10 153 -15 l100 -9 43 42 43
42 19 145 c25 182 29 199 45 199 23 0 95 -133 126 -230 25 -81 33 -95 81 -140
29 -27 58 -49 65 -50 27 -1 160 212 203 325 22 59 51 95 75 95 13 0 18 -21 44
-206 17 -118 18 -121 61 -173 33 -39 49 -51 65 -47 11 2 79 8 150 11 l131 7
40 72 c22 39 46 86 54 104 l13 34 32 -65 c18 -35 45 -83 61 -107 32 -46 16
-43 244 -51 l84 -3 43 55 c41 53 44 60 58 169 21 156 28 185 45 185 22 0 97
-140 128 -240 28 -89 30 -91 86 -128 32 -21 63 -36 70 -34 14 5 151 250 195
350 28 63 33 68 58 65 30 -3 31 -8 65 -257 13 -94 13 -94 58 -131 l45 -38 100
9 c55 4 122 11 148 15 l48 6 51 101 50 101 24 -59 c13 -33 44 -85 67 -115 l43
-55 150 3 149 3 43 69 c38 62 44 79 57 179 20 151 24 165 42 149 21 -17 101
-178 133 -268 23 -65 32 -78 63 -93 20 -10 51 -20 69 -23 32 -5 34 -4 58 53
51 121 182 353 199 353 38 -1 44 -17 69 -198 l26 -180 43 -21 c36 -18 62 -21
155 -21 100 0 116 3 153 24 35 21 47 37 80 111 21 47 41 82 45 78 4 -4 19 -37
34 -73 15 -37 45 -83 69 -108 37 -37 45 -41 74 -36 18 3 86 9 150 13 l118 6
42 79 c34 62 45 96 53 160 16 124 20 146 30 146 10 0 118 -211 150 -295 30
-77 42 -87 110 -83 l54 3 32 80 c17 44 55 123 84 175 87 156 85 155 128 122
20 -16 26 -38 49 -197 14 -99 31 -183 37 -187 6 -4 45 -8 86 -8 41 -1 105 -4
142 -9 l68 -7 44 45 c26 27 58 76 76 116 l32 70 30 -65 c16 -36 34 -75 38 -87
5 -12 27 -34 49 -48 37 -23 50 -25 156 -25 162 0 183 11 236 128 30 64 43 110
51 172 6 47 14 89 18 93 3 4 48 -78 98 -182 50 -104 95 -192 100 -195 4 -2 35
2 68 10 l60 16 27 81 c28 87 130 273 159 291 14 9 24 5 47 -19 28 -28 32 -41
51 -174 11 -79 24 -160 28 -180 l8 -36 156 -3 156 -2 37 52 c21 28 49 78 64
111 l27 59 49 -98 c58 -114 53 -111 215 -120 58 -3 111 -7 118 -10 7 -2 33 13
57 33 57 47 119 183 136 297 l12 77 54 -113 c93 -193 113 -232 133 -258 l19
-25 -1 35 c0 22 -24 85 -63 165 -34 72 -74 158 -89 191 -27 60 -29 62 -73 68
-96 13 -107 10 -178 -50 -47 -41 -72 -71 -87 -106 l-21 -50 -51 99 -51 98 -45
7 c-25 4 -92 11 -150 16 l-105 9 -46 -45 c-36 -33 -57 -67 -89 -143 -23 -54
-43 -99 -44 -99 -2 0 -27 30 -57 67 -71 89 -189 213 -204 213 -40 0 -172 -211
-215 -343 -12 -37 -27 -67 -33 -67 -7 0 -22 -3 -34 -6 -19 -5 -31 13 -122 201
l-102 208 -77 -7 -77 -7 -72 -71 c-39 -39 -74 -82 -77 -95 -9 -33 -22 -29 -39
14 -9 21 -33 67 -55 101 l-38 64 -155 5 -154 5 -42 -57 c-23 -32 -56 -93 -74
-137 -25 -63 -34 -77 -44 -66 -6 7 -47 55 -90 105 -51 62 -95 103 -130 123
-29 16 -55 30 -58 30 -18 0 -159 -249 -197 -349 -24 -61 -28 -66 -58 -69 -31
-3 -34 -1 -55 50 -35 87 -155 321 -177 347 l-21 24 -74 -23 c-68 -21 -79 -29
-137 -93 -35 -39 -68 -80 -75 -91 -13 -23 -8 -30 -42 58 -7 16 -31 56 -54 88
l-42 59 -155 -5 -155 -5 -42 -68 c-23 -37 -52 -95 -64 -127 l-23 -59 -25 34
c-14 19 -61 70 -103 115 -67 68 -85 82 -129 93 -28 8 -54 9 -59 5 -12 -13
-147 -264 -181 -339 -17 -36 -37 -65 -44 -65 -39 0 -62 23 -80 78 -42 134
-166 342 -204 342 -40 0 -144 -74 -203 -146 -35 -41 -66 -74 -69 -74 -4 0 -19
31 -34 69 -19 49 -41 82 -74 114 l-46 44 -85 -8 c-47 -5 -115 -11 -151 -14
l-65 -6 -54 -110 c-30 -60 -57 -109 -61 -109 -4 0 -24 22 -43 49 -20 27 -67
77 -105 110 -66 59 -71 61 -124 61 l-55 0 -36 -77 c-21 -43 -69 -135 -107
-205 l-70 -128 -34 23 c-29 18 -40 36 -66 112 -43 126 -105 232 -156 268 l-41
30 -72 -51 c-43 -30 -92 -77 -122 -116 -28 -36 -54 -66 -58 -66 -3 0 -25 40
-47 89 -34 74 -48 94 -82 115 -37 24 -50 26 -151 26 -92 0 -117 -3 -154 -21
-40 -20 -47 -30 -86 -115 -23 -52 -46 -94 -51 -94 -4 0 -29 27 -54 60 -49 64
-167 160 -194 159 -9 0 -36 -8 -60 -17 -41 -16 -45 -21 -81 -107 -33 -79 -113
-227 -152 -278 -12 -16 -16 -15 -52 22 -30 30 -45 60 -66 126 -27 81 -94 210
-122 232 -7 6 -29 13 -49 16 -32 5 -41 0 -105 -56 -38 -33 -86 -83 -107 -111
-21 -28 -42 -52 -46 -54 -4 -1 -30 45 -57 103 -57 122 -51 119 -219 130 -55 3
-107 8 -116 11 -32 9 -100 -66 -140 -154 l-39 -84 -61 76 c-45 56 -79 87 -128
116 -37 22 -71 40 -76 40 -5 0 -31 -16 -59 -35 -47 -32 -54 -42 -80 -115 -30
-84 -122 -247 -150 -265 -13 -8 -24 -1 -55 35 -30 34 -46 67 -67 137 -30 103
-114 239 -141 229 -8 -3 -24 -6 -35 -6 -22 0 -154 -123 -203 -189 -17 -22 -33
-41 -36 -41 -4 0 -16 22 -27 49 -11 27 -39 81 -62 120 l-41 71 -72 1 c-40 0
-107 4 -150 8 l-79 7 -49 -59 c-27 -32 -49 -62 -49 -67 0 -5 -9 -29 -20 -55
l-20 -46 -71 83 c-61 71 -80 87 -136 110 -37 16 -71 28 -77 28 -7 0 -35 -24
-63 -52 -41 -44 -56 -69 -82 -143 -33 -92 -118 -225 -143 -225 -27 1 -96 117
-123 206 -26 85 -37 105 -104 184 l-29 34 -43 -29 c-23 -17 -83 -76 -132 -132
-50 -57 -93 -101 -95 -98 -3 3 -20 38 -37 77 -17 40 -49 97 -69 126 l-38 53
-153 -2 -153 -1 -45 -77 c-25 -42 -52 -92 -60 -111 l-14 -35 -16 30 c-8 17
-44 60 -79 98 -60 64 -66 68 -132 81 -38 8 -74 12 -80 10 -30 -13 -105 -135
-130 -209 -14 -44 -34 -92 -44 -106 -37 -54 -78 -99 -90 -99 -24 0 -110 150
-138 242 -26 83 -32 93 -81 135 -64 55 -49 64 -199 -114 l-102 -122 -42 97
c-26 62 -56 114 -83 143 l-42 46 -70 -8 c-38 -4 -105 -9 -148 -10 -90 -1 -84
4 -155 -138 l-37 -74 -20 46 c-13 30 -44 66 -89 107 l-70 61 -70 -3 -71 -3
-51 -75 c-34 -50 -61 -104 -80 -162 -22 -71 -36 -95 -70 -129 -42 -41 -44 -42
-63 -25 -35 32 -108 169 -137 259 -28 88 -29 88 -84 118 l-55 30 -20 -27 c-25
-35 -165 -219 -186 -246 -15 -19 -18 -15 -65 92 -39 91 -57 119 -91 147 l-42
34 -108 -2 c-61 -1 -128 -9 -155 -17 -45 -15 -47 -17 -92 -111 l-45 -96 -26
60 c-27 62 -36 71 -120 130 -54 37 -44 36 -172 10 -28 -6 -111 -151 -149 -263
-25 -70 -35 -87 -67 -109 l-39 -27 -19 24 c-37 47 -113 196 -144 280 l-32 85
-53 12 c-30 6 -58 9 -62 7 -5 -3 -21 -31 -37 -62 -22 -43 -126 -190 -157 -221
-2 -2 -6 5 -10 15 -4 10 -31 71 -61 134 -52 111 -56 116 -97 131 -27 10 -85
16 -153 18 l-110 2 -43 -33 c-33 -25 -50 -50 -73 -103 -16 -38 -32 -74 -37
-78 -4 -5 -22 25 -40 66 -31 72 -35 75 -100 111 -62 33 -75 36 -131 33 l-63
-3 -58 -110 c-32 -60 -72 -147 -90 -192 -27 -72 -36 -86 -65 -100 -20 -10 -37
-12 -42 -6 -19 20 -117 204 -156 294 -45 103 -54 110 -130 96 -29 -6 -36 -15
-68 -84 -19 -42 -58 -106 -86 -141 l-50 -64 -12 29 c-35 83 -100 218 -118 242
-19 27 -25 29 -103 31 -46 1 -111 5 -146 10 l-63 7 -47 -50z m-333 19 c17 3
21 2 13 -3 -10 -7 7 -13 52 -22 36 -7 69 -17 74 -24 5 -6 23 -41 40 -79 l31
-67 -47 -25 c-26 -13 -43 -24 -39 -25 4 0 26 9 48 21 23 11 42 19 43 17 7 -9
66 -158 66 -166 0 -6 -34 -18 -76 -28 -42 -10 -72 -20 -66 -22 6 -2 36 4 68
12 55 14 59 14 86 -5 15 -11 28 -23 28 -25 0 -3 -30 -3 -67 1 -38 3 -93 7
-123 9 -55 4 -55 4 -87 57 -18 30 -32 59 -33 65 0 6 22 21 50 34 27 13 48 25
46 27 -2 3 -22 -5 -45 -16 -47 -24 -42 -30 -86 87 -15 41 -33 76 -41 79 -13 5
-34 62 -34 95 0 14 5 15 36 6 20 -5 48 -7 63 -3z m421 -20 c19 -19 32 -35 29
-35 -3 0 -20 16 -39 35 -19 19 -32 35 -29 35 3 0 20 -16 39 -35z m223 12 c25
0 32 -8 63 -69 l35 -69 -103 -48 -103 -48 -32 69 c-48 100 -51 118 -22 119 22
0 23 1 4 9 -11 4 -30 19 -42 32 l-22 23 97 -8 c53 -5 110 -9 125 -10z m1467
-40 c0 -13 -49 43 -50 57 0 5 11 -3 25 -18 14 -15 25 -32 25 -39z m1857 37
c23 -21 24 -24 8 -20 -55 14 -146 28 -150 24 -3 -3 42 -13 99 -24 l104 -18 74
-165 c40 -90 74 -168 76 -172 2 -4 -25 -14 -60 -23 l-63 -15 55 5 c42 4 60 1
75 -11 19 -15 16 -16 -50 -9 -38 5 -92 8 -120 7 l-50 -2 -33 55 c-18 30 -31
58 -27 64 3 5 -8 44 -25 87 -35 91 -35 94 -12 87 9 -2 0 4 -21 13 -36 18 -62
47 -93 108 l-16 30 27 -30 c15 -17 22 -21 16 -10 -9 18 -5 21 47 31 89 18 108
16 139 -12z m1698 -15 l40 -41 -35 5 -35 6 37 -11 c39 -12 67 -55 52 -79 -4
-7 -3 -10 3 -6 12 8 26 -20 17 -34 -3 -5 -2 -15 3 -21 11 -19 12 -38 2 -38 -5
0 -60 20 -121 45 -62 25 -118 45 -125 45 -10 0 -83 126 -83 143 0 2 12 4 28 5
15 0 54 5 87 10 33 5 67 10 75 11 9 0 34 -17 55 -40z m1679 -14 c20 -31 34
-60 31 -65 -3 -5 8 -44 25 -87 16 -43 30 -81 30 -85 0 -3 -48 13 -107 37 -60
24 -117 45 -128 47 -14 2 -32 28 -57 82 -21 43 -38 80 -38 82 0 1 8 3 18 3 9
0 33 4 52 10 35 11 35 11 -10 6 -25 -2 -52 1 -60 6 -11 8 8 9 65 6 63 -3 133
2 141 12 1 0 18 -24 38 -54z m991 20 l50 -18 -35 -13 c-51 -18 -57 -17 -69 17
-13 37 -15 60 -3 43 4 -5 29 -18 57 -29z m580 22 c23 -1 12 -7 -42 -20 -67
-18 -73 -18 -97 -2 -14 10 -26 20 -26 24 0 5 81 5 165 -2z m1516 -40 c23 -28
26 -36 10 -22 -26 23 -71 82 -54 72 6 -4 26 -26 44 -50z m1859 32 c14 -12 18
-19 9 -16 -9 3 -41 8 -72 12 -69 9 -75 25 -9 25 33 0 55 -7 72 -21z m1691 -15
c26 -28 29 -35 14 -30 -11 3 -51 13 -90 21 -125 28 -123 32 21 43 12 1 34 -13
55 -34z m1683 -13 c36 -48 45 -68 27 -56 -5 3 -4 -7 4 -22 7 -16 25 -58 39
-95 l25 -67 -52 20 c-29 12 -90 36 -136 54 l-84 33 -33 71 c-18 39 -32 71 -31
72 6 2 52 11 122 23 44 8 81 14 82 15 1 1 17 -21 37 -48z m1509 38 l72 -1 -50
-14 c-67 -18 -79 -18 -106 7 -19 16 -20 19 -6 15 10 -3 51 -6 90 -7z m1595
-51 c7 -10 19 -18 26 -18 8 0 -1 16 -20 37 -19 20 -33 37 -31 38 1 1 49 -3
107 -9 58 -6 98 -14 90 -18 -8 -3 1 -4 20 -1 35 5 35 4 68 -63 39 -79 41 -75
-68 -124 -41 -18 -79 -37 -85 -42 -5 -5 17 2 50 17 101 46 124 55 132 55 4 0
16 -18 25 -40 9 -22 13 -38 8 -35 -5 3 -4 -8 1 -25 6 -16 15 -28 19 -25 4 3 6
-5 2 -17 -3 -12 -1 -19 5 -15 5 3 10 0 10 -8 0 -8 -5 -15 -11 -15 -11 0 24
-29 36 -30 4 0 5 7 2 15 -10 24 2 17 22 -12 15 -24 15 -26 1 -14 -14 11 -17
11 -17 -1 0 -8 5 -19 12 -26 16 -16 -31 -16 -127 0 -38 6 -80 11 -92 11 -17
-1 -30 18 -68 99 -26 55 -60 132 -76 171 -18 43 -47 90 -72 117 -25 26 -30 35
-12 20 16 -14 36 -33 43 -42z m-17073 18 c50 -15 97 -29 106 -32 14 -4 73
-124 81 -164 2 -8 6 -17 9 -20 8 -7 69 -138 69 -149 0 -9 -37 -19 -153 -40
l-48 -9 -35 47 c-18 25 -31 52 -29 59 3 7 -11 51 -29 97 -19 47 -31 85 -27 85
4 0 36 -12 72 -26 130 -53 164 -65 154 -56 -12 12 -234 102 -250 102 -7 0 -17
23 -23 51 -16 66 -15 92 1 86 6 -2 53 -16 102 -31z m27 13 c34 -21 29 -21 -53
5 -43 14 -43 14 -12 15 18 1 47 -8 65 -20z m504 6 c54 -8 104 -15 111 -15 11
0 87 -149 80 -156 -11 -11 -180 -83 -187 -79 -4 2 -20 38 -36 80 -16 42 -38
86 -49 98 -11 13 -16 17 -11 10 5 -8 4 -13 -3 -13 -11 0 -15 12 -12 42 1 9 -3
19 -9 23 -14 9 -13 25 3 25 8 0 58 -7 113 -15z m37 8 c-7 -2 -19 -2 -25 0 -7
3 -2 5 12 5 14 0 19 -2 13 -5z m1158 -35 c32 -24 59 -48 59 -55 0 -6 14 -46
31 -88 17 -42 29 -78 27 -80 -2 -2 -52 17 -113 41 -60 24 -114 44 -120 43 -5
0 54 -26 133 -57 l142 -57 30 -60 c16 -33 30 -63 30 -66 0 -3 -14 -3 -31 -1
-20 3 -29 1 -26 -5 4 -6 -23 -13 -71 -17 l-77 -7 -29 32 c-16 18 -24 35 -19
36 6 2 39 -3 73 -12 34 -9 64 -14 67 -12 7 7 -135 39 -145 33 -5 -3 -14 0 -19
7 -12 14 -72 162 -79 192 -24 107 -30 170 -16 161 5 -3 22 -1 38 4 47 14 54
12 115 -32z m2669 7 c19 -19 32 -35 29 -35 -3 0 -20 16 -39 35 -19 19 -32 35
-29 35 3 0 20 -16 39 -35z m1691 -27 c46 -57 27 -46 -22 15 -24 28 -36 46 -26
38 10 -8 31 -31 48 -53z m2235 31 c32 -18 51 -35 48 -41 -4 -7 -2 -8 4 -4 11
7 140 -139 134 -151 -2 -3 1 -9 6 -12 13 -8 84 -152 79 -158 -3 -2 -50 -15
-106 -27 l-100 -23 -36 53 c-36 55 -42 74 -25 74 6 0 6 9 1 23 -5 12 -12 57
-16 100 -3 42 -11 77 -16 77 -6 0 -7 5 -4 10 3 6 2 10 -3 10 -8 0 -32 72 -32
94 0 11 12 6 66 -25z m534 20 c47 -7 93 -12 103 -13 13 0 30 -22 53 -68 19
-37 34 -71 34 -76 0 -6 -130 -71 -201 -100 -8 -3 -17 21 -25 64 -3 15 -9 35
-15 46 -5 10 -7 23 -4 28 3 6 1 10 -5 10 -7 0 -10 7 -6 15 3 8 0 15 -6 15 -6
0 -8 3 -5 6 4 4 -7 24 -24 45 -31 39 -31 39 -7 39 13 0 62 -5 108 -11z m1547
-16 l25 -28 -17 28 -17 29 30 -7 c17 -3 76 -14 132 -24 l101 -17 36 -79 c19
-44 45 -102 58 -130 44 -96 55 -129 48 -135 -5 -4 -36 -13 -71 -20 -34 -7 -61
-15 -58 -17 2 -2 31 1 65 8 59 13 62 12 84 -10 l22 -23 -80 8 c-44 4 -99 8
-123 9 -41 1 -44 4 -78 59 -19 32 -32 62 -28 67 9 16 -59 188 -77 194 -15 5
-94 115 -83 115 3 0 17 -12 31 -27z m2319 -5 l29 -33 -32 29 c-31 28 -38 36
-30 36 2 0 16 -15 33 -32z m1057 25 c-7 -2 -21 -2 -30 0 -10 3 -4 5 12 5 17 0
24 -2 18 -5z m1597 -14 c17 -13 18 -17 5 -10 -33 17 -51 31 -40 31 6 0 21 -10
35 -21z m277 -40 c18 -30 31 -60 28 -66 -8 -22 60 -187 81 -197 11 -5 34 -34
53 -65 27 -46 29 -52 10 -36 -21 19 -22 19 -16 1 5 -12 3 -17 -5 -14 -7 3 -64
14 -127 24 l-114 19 -33 70 c-18 38 -34 77 -36 85 -2 8 -6 17 -9 20 -10 8 -77
164 -73 169 6 6 188 49 199 47 5 -2 24 -27 42 -57z m378 52 c-11 -10 -134 -27
-124 -17 3 4 33 10 65 15 32 5 61 9 64 10 2 0 0 -3 -5 -8z m610 -59 c-3 -3
-22 11 -43 33 l-37 38 43 -33 c24 -18 40 -35 37 -38z m1070 53 c20 -4 76 -100
74 -128 0 -6 -15 17 -32 53 l-32 65 -60 3 c-58 3 -63 2 -100 -33 -46 -42 -84
-70 -89 -64 -3 2 25 29 61 60 62 54 67 56 112 52 25 -2 55 -6 66 -8z m-19053
-28 c-32 -34 -27 -45 6 -14 26 25 29 26 50 11 22 -15 52 -64 52 -84 0 -14 -26
-7 -97 27 l-53 24 26 35 c15 19 29 32 32 29 3 -3 -4 -15 -16 -28z m776 -36
c21 -50 28 -80 17 -70 -2 3 -16 36 -30 75 -30 79 -19 76 13 -5z m3975 18 c36
-32 57 -59 57 -72 0 -12 14 -53 30 -91 23 -53 27 -72 17 -78 -6 -4 -7 -8 -2
-9 19 -1 47 -8 50 -11 10 -11 65 -107 65 -113 0 -4 -8 -1 -17 6 -14 12 -15 12
-9 0 6 -10 4 -12 -10 -8 -11 3 -71 15 -134 27 l-115 21 -32 77 c-44 107 -51
131 -59 210 l-6 69 48 11 c27 5 51 10 55 11 3 0 31 -22 62 -50z m264 45 c-3
-3 -12 -4 -19 -1 -8 3 -5 6 6 6 11 1 17 -2 13 -5z m1308 -4 c21 -9 22 -9 -37
-14 -6 -1 -13 5 -15 12 -5 14 22 15 52 2z m2352 -54 c18 -32 33 -60 33 -62 0
-2 -17 -13 -37 -24 -21 -12 -29 -18 -18 -14 42 13 47 8 82 -78 20 -50 41 -88
49 -88 7 0 26 -19 42 -42 33 -49 51 -84 26 -51 -19 26 -36 31 -28 8 8 -19 0
-19 -106 0 -47 8 -97 16 -112 17 -23 2 -32 13 -63 81 -19 43 -33 83 -30 87 3
5 0 10 -6 12 -13 4 -81 159 -73 167 9 10 167 50 189 48 12 -1 31 -23 52 -61z
m446 -25 c32 -55 9 -33 -33 32 -29 43 -33 52 -13 30 15 -17 36 -45 46 -62z
m872 59 c-16 -16 -31 -28 -33 -25 -4 4 48 54 57 55 3 0 -8 -13 -24 -30z m670
-42 c-2 -39 -8 -74 -12 -79 -10 -9 -85 20 -78 31 3 5 -5 6 -17 3 -17 -3 -4 13
42 56 36 33 66 61 67 61 1 0 1 -32 -2 -72z m682 32 c29 -23 53 -45 53 -51 0
-6 21 -37 46 -70 25 -33 45 -62 43 -63 -2 -2 -45 20 -95 48 -88 49 -92 53 -98
91 -4 22 -9 50 -13 63 -7 31 2 28 64 -18z m343 35 c0 -2 -10 -9 -22 -15 -22
-11 -22 -10 -4 4 21 17 26 19 26 11z m1678 -2 c-10 -2 -26 -2 -35 0 -10 3 -2
5 17 5 19 0 27 -2 18 -5z m48 -10 c12 -15 13 -15 8 -2 -4 14 14 12 127 -15
l132 -31 35 -85 c19 -47 52 -119 73 -162 41 -81 47 -100 27 -97 -35 4 -49 -4
-18 -10 24 -5 10 -7 -45 -7 -44 1 -92 -2 -106 -6 -23 -7 -30 -2 -60 40 -19 26
-33 52 -31 59 1 6 -11 46 -28 88 -17 43 -28 80 -25 83 3 3 57 -15 120 -40 63
-25 115 -43 115 -40 0 4 -64 32 -141 62 l-141 55 -35 63 c-33 59 -37 83 -7 45z
m549 -13 c-27 -16 -54 -31 -58 -32 -4 -2 -4 -15 2 -28 5 -14 10 -19 10 -12 1
7 7 19 14 26 14 13 82 56 90 56 3 0 0 -18 -5 -39 -9 -37 -12 -39 -35 -30 -14
5 -28 8 -30 5 -3 -2 5 -7 17 -11 21 -7 21 -11 15 -78 -4 -40 -9 -90 -10 -112
-2 -53 -49 -130 -73 -120 -9 4 -25 10 -35 12 -16 5 -97 148 -97 172 0 24 138
174 180 196 64 34 74 30 15 -5z m1670 7 l-60 -21 48 -15 c36 -11 47 -19 48
-35 0 -21 1 -21 9 -1 6 13 7 1 3 -35 -3 -30 -6 -61 -6 -67 0 -7 -3 -13 -7 -13
-4 0 -7 -16 -8 -36 -1 -19 -15 -61 -32 -93 l-31 -59 -42 10 c-50 11 -47 8 -86
84 -28 55 -30 64 -19 90 6 16 12 37 13 47 1 9 26 43 56 75 51 55 113 91 154
91 11 0 -7 -10 -40 -22z m655 -3 c0 -2 -9 0 -20 6 -11 6 -20 13 -20 16 0 2 9
0 20 -6 11 -6 20 -13 20 -16z m2044 14 c-13 -24 -37 -48 -47 -48 -6 0 2 14 18
30 31 32 41 38 29 18z m-17631 -5 c-7 -2 -21 -2 -30 0 -10 3 -4 5 12 5 17 0
24 -2 18 -5z m3301 -5 c-37 -61 -64 -100 -64 -93 0 10 60 105 67 105 2 0 1 -6
-3 -12z m1667 -6 c-5 -10 -18 -25 -27 -33 -11 -9 -9 -2 6 19 26 35 36 42 21
14z m527 -36 c-18 -25 -37 -45 -41 -46 -5 0 -2 8 5 18 44 60 62 81 66 78 2 -3
-11 -25 -30 -50z m539 21 c7 -8 63 -138 63 -147 0 -7 -7 -7 -21 0 -11 7 -23
10 -25 7 -2 -2 7 -10 21 -17 28 -15 28 -20 -11 -107 -21 -48 -44 -70 -44 -42
0 5 -5 7 -10 4 -18 -11 -112 28 -128 53 -19 30 -18 58 6 112 l19 45 41 -80
c23 -44 41 -77 42 -72 0 4 -16 39 -35 77 -19 38 -35 72 -35 75 0 2 25 -7 57
-20 31 -14 58 -24 60 -22 5 6 -120 61 -131 58 -11 -3 -2 19 29 68 l25 41 37
-15 c20 -9 38 -17 40 -18z m1163 26 c0 -5 -17 -21 -38 -37 l-37 -29 34 36 c36
39 41 42 41 30z m413 -30 c-15 -21 -28 -40 -30 -42 -2 -2 -3 1 -3 7 0 11 48
72 56 72 3 0 -7 -17 -23 -37z m2467 -31 c22 -38 40 -72 40 -78 0 -5 -8 5 -18
21 -50 82 -73 125 -68 125 3 0 23 -31 46 -68z m450 58 c-8 -5 -19 -10 -25 -10
-5 0 -3 5 5 10 8 5 20 10 25 10 6 0 3 -5 -5 -10z m1100 5 c0 -2 -21 -19 -47
-36 -27 -18 -51 -37 -55 -43 -5 -8 -8 -7 -8 1 0 6 21 27 48 46 44 34 62 43 62
32z m573 -2 c-7 -2 -19 -2 -25 0 -7 3 -2 5 12 5 14 0 19 -2 13 -5z m126 -45
c30 -29 56 -61 56 -70 1 -9 20 -42 44 -72 23 -31 39 -56 37 -56 -3 0 -28 13
-56 30 -66 39 -110 62 -110 56 0 -5 172 -104 190 -108 8 -2 21 -10 30 -18 22
-20 82 -121 76 -127 -2 -3 -12 9 -20 25 -9 17 -21 34 -27 37 -6 4 -4 -6 5 -22
l15 -30 -50 -11 c-73 -17 -120 -14 -148 9 -13 11 -22 22 -19 24 3 3 37 -1 77
-10 40 -8 80 -15 89 -14 9 1 -32 11 -92 24 -59 12 -112 28 -116 35 -4 7 -11
47 -15 89 -9 94 -11 112 -24 180 -13 62 -14 81 -4 81 3 0 31 -24 62 -52z
m2068 -54 c23 -43 38 -83 35 -89 -4 -5 -7 -14 -8 -20 -1 -5 -15 -40 -32 -77
l-30 -67 -54 15 c-63 19 -92 36 -113 67 -13 21 -13 28 8 80 12 31 27 59 33 61
6 2 35 -7 64 -20 29 -13 55 -23 57 -21 4 5 -111 57 -126 57 -17 0 -14 9 20 66
l32 52 36 -12 c31 -11 42 -24 78 -92z m673 42 c0 -11 0 -11 -29 34 l-23 35 26
-30 c14 -16 26 -34 26 -39z m937 42 c28 -20 73 -99 73 -129 0 -4 -26 4 -57 18
-32 14 -69 29 -82 34 -23 9 -23 10 -6 37 l18 27 -28 -25 -29 -25 30 42 c16 24
33 43 38 43 6 0 25 -10 43 -22z m-14950 -54 c-5 -6 -87 26 -87 33 0 3 8 12 18
19 15 12 21 10 45 -17 16 -17 26 -33 24 -35z m549 8 c-14 -28 -31 -54 -37 -58
-7 -4 3 20 22 54 40 73 51 76 15 4z m153 -21 c11 -36 19 -66 17 -68 -2 -2 -16
31 -30 73 -14 43 -22 74 -17 68 4 -5 18 -38 30 -73z m935 63 c5 -12 2 -15 -10
-10 -8 3 -18 6 -20 6 -3 0 -2 5 1 10 9 15 22 12 29 -6z m1670 -5 c2 -2 20 -35
40 -73 37 -70 46 -116 24 -116 -10 0 -187 74 -206 86 -2 2 10 29 28 62 l31 59
40 -7 c22 -4 41 -9 43 -11z m1369 -37 c31 -32 57 -61 57 -65 0 -7 -92 -52
-159 -78 -13 -5 -22 -12 -19 -14 3 -3 40 11 82 31 43 19 83 33 89 31 7 -3 25
-39 41 -81 16 -42 33 -76 38 -76 5 0 7 -4 3 -9 -3 -5 1 -15 8 -23 7 -7 21 -26
31 -42 l18 -29 -73 7 c-41 4 -93 12 -117 17 -24 5 -47 7 -52 4 -10 -6 -78 121
-86 159 -10 45 -24 142 -24 172 0 28 4 32 43 41 23 6 47 11 52 12 6 0 36 -25
68 -57z m1955 38 c23 -19 67 -98 59 -107 -2 -2 -26 6 -53 18 -27 11 -59 25
-72 30 l-23 9 27 35 c14 19 29 35 31 35 3 0 16 -9 31 -20z m1681 -19 c17 -21
31 -42 31 -45 0 -5 -100 31 -109 40 -5 5 30 44 40 44 4 0 21 -18 38 -39z
m1661 7 c0 -5 -10 -6 -22 -2 -31 9 -35 14 -18 24 15 9 40 -4 40 -22z m616 -5
c-12 -64 -16 -72 -33 -66 -11 4 -14 3 -9 -6 4 -6 4 -46 1 -87 -5 -49 -11 -71
-16 -63 -7 11 -9 11 -9 -1 0 -9 6 -22 13 -29 13 -13 1 -9 -110 39 -43 18 -52
26 -51 45 1 13 5 22 9 19 11 -7 61 65 53 78 -4 6 -3 8 4 4 6 -3 14 -1 18 6 5
7 16 -13 30 -53 12 -35 23 -59 23 -53 1 6 -6 31 -14 54 -8 23 -15 49 -15 56 0
10 94 91 109 93 2 1 0 -16 -3 -36z m3354 25 c-1 -31 -15 -39 -50 -26 l-34 11
34 13 c45 16 50 16 50 2z m1730 -29 c12 -23 20 -43 18 -45 -3 -2 -14 17 -26
41 -27 56 -20 60 8 4z m968 -1 c34 -44 41 -64 20 -55 -7 3 -33 13 -58 23 -25
9 -47 19 -49 21 -5 4 40 53 49 53 3 0 20 -19 38 -42z m635 26 c11 -4 16 -12
13 -22 -3 -9 -8 -43 -12 -74 -3 -32 -9 -58 -13 -58 -4 0 -44 16 -89 35 -45 20
-88 33 -95 30 -6 -4 15 19 48 49 63 59 73 62 148 40z m-19493 -14 c0 -11 -4
-20 -9 -20 -5 0 -7 9 -4 20 3 11 7 20 9 20 2 0 4 -9 4 -20z m4978 -39 c-18
-28 -36 -51 -41 -51 -4 0 9 25 29 55 21 30 39 53 41 51 3 -2 -11 -27 -29 -55z
m4466 -28 c-9 -71 -13 -74 -59 -59 -11 4 -5 -1 13 -11 32 -17 33 -19 28 -63
-14 -101 -18 -120 -27 -120 -4 0 -33 9 -64 21 -40 15 -60 29 -70 50 -15 28
-14 31 25 83 30 40 46 53 58 49 9 -3 14 -2 9 2 -4 5 9 26 30 47 20 21 33 38
27 38 -6 0 -25 -16 -44 -35 -19 -19 -39 -35 -44 -35 -6 0 16 27 49 60 36 36
63 56 68 51 6 -6 6 -37 1 -78z m3476 11 c23 -42 39 -78 36 -81 -2 -3 -23 31
-45 76 -23 45 -39 81 -37 81 2 0 23 -34 46 -76z m396 43 c-17 -42 -45 -94 -46
-86 0 10 51 119 56 119 2 0 -2 -15 -10 -33z m536 17 c5 -3 24 -37 44 -76 35
-70 40 -118 11 -118 -9 0 -128 50 -204 85 -2 1 11 30 28 64 l30 63 41 -6 c23
-4 45 -9 50 -12z m1323 -45 l59 -62 -45 -23 c-58 -31 -66 -30 -73 9 -14 83
-18 137 -9 137 6 0 36 -28 68 -61z m2622 40 c26 -8 32 -15 29 -32 -3 -12 -8
-48 -11 -79 -5 -45 -10 -58 -23 -58 -14 0 -15 -2 -2 -10 12 -7 9 -20 -20 -79
-19 -39 -37 -71 -40 -71 -25 0 -108 37 -122 54 -35 42 -42 84 -22 129 10 23
19 43 20 45 1 1 36 -13 79 -33 43 -19 80 -33 82 -31 2 2 -37 21 -86 42 l-90
39 52 53 c56 57 68 59 154 31z m20 15 c-3 -3 -12 -4 -19 -1 -8 3 -5 6 6 6 11
1 17 -2 13 -5z m-16731 -68 c-14 -31 -27 -56 -31 -56 -5 0 7 32 35 93 25 52
21 19 -4 -37z m2228 17 c-36 -63 -54 -89 -54 -79 0 11 70 126 77 126 3 0 -7
-21 -23 -47z m515 33 c38 -11 49 -21 74 -65 l29 -52 -17 -44 c-9 -25 -19 -45
-21 -45 -4 0 -187 81 -192 85 -7 6 63 135 73 135 5 0 30 -6 54 -14z m770 -76
c13 -41 46 -113 73 -159 27 -46 47 -85 45 -87 -9 -10 -102 167 -128 245 -31
91 -33 100 -21 86 4 -6 19 -44 31 -85z m3975 26 c31 -35 56 -68 56 -73 0 -9
-26 -21 -156 -79 -35 -15 -32 -21 -37 64 -1 18 -7 30 -13 28 -6 -2 -10 6 -9
17 1 12 -1 33 -5 47 -6 23 -3 26 44 42 28 9 54 16 57 17 4 1 32 -28 63 -63z
m-802 44 c1 -3 -2 -40 -6 -82 -8 -85 -13 -90 -67 -62 -17 8 -33 13 -35 11 -3
-3 15 -13 40 -23 26 -11 46 -26 46 -34 0 -23 -19 -132 -24 -137 -2 -2 -23 1
-45 8 -28 8 -48 23 -61 43 -22 37 -43 89 -32 83 4 -3 13 1 20 9 7 8 9 14 5 14
-4 0 3 7 15 16 12 8 22 22 22 30 0 31 118 151 122 124z m3854 -54 c-23 -60
-112 -226 -122 -226 -5 0 16 42 54 107 25 42 41 77 73 161 5 12 11 22 14 22 3
0 -6 -29 -19 -64z m543 46 c35 -14 49 -26 67 -62 21 -42 21 -46 7 -85 -9 -22
-19 -44 -23 -48 -4 -4 -50 11 -102 34 l-96 43 25 55 c14 31 27 62 30 69 7 16
39 14 92 -6z m2802 -23 c-12 -19 -21 -30 -21 -26 0 12 33 67 38 63 1 -2 -6
-19 -17 -37z m1905 -60 c84 -105 166 -202 208 -249 l41 -45 -45 42 c-25 24
-51 43 -58 43 -7 0 3 -14 23 -31 19 -17 35 -34 35 -38 0 -4 -44 -3 -97 2 -54
5 -110 9 -125 10 -30 2 -33 9 -44 104 l-6 61 48 26 c27 14 45 25 41 26 -4 0
-26 -9 -48 -21 -23 -11 -42 -19 -44 -17 -3 4 -25 154 -25 175 0 22 28 -4 96
-88z m-15252 20 c-19 -39 -37 -69 -39 -67 -5 5 64 138 71 138 2 0 -12 -32 -32
-71z m525 -26 c28 -54 50 -95 50 -90 1 4 -17 44 -40 88 -22 45 -38 83 -36 86
3 2 29 -4 57 -14 43 -15 56 -24 67 -52 13 -31 13 -40 -3 -88 -10 -29 -23 -54
-29 -57 -7 -2 -31 4 -55 15 -24 11 -45 18 -47 16 -4 -5 91 -47 106 -47 6 0 11
-2 11 -5 0 -8 -61 -105 -66 -105 -3 0 -20 7 -40 15 -29 12 -41 27 -69 88 -23
50 -33 83 -29 102 5 28 61 145 69 145 3 0 27 -44 54 -97z m12456 15 c20 -37
35 -72 33 -78 -2 -6 -23 29 -47 77 -49 101 -41 101 14 1z m-4641 50 c-17 -57
-46 -129 -50 -125 -5 5 46 147 53 147 2 0 1 -10 -3 -22z m511 -88 c30 -60 55
-112 55 -115 0 -3 -17 2 -37 11 -62 26 -71 26 -18 -1 28 -13 56 -25 63 -25 6
0 12 -3 12 -6 0 -11 -61 -94 -69 -94 -28 0 -76 51 -102 109 -31 67 -32 65 26
47 11 -3 1 3 -22 14 l-41 20 31 75 c18 41 35 75 39 75 4 0 33 -49 63 -110z
m105 31 c9 -22 6 -37 -14 -86 l-24 -59 -51 102 c-28 56 -51 106 -51 111 0 5
29 -2 64 -16 48 -19 68 -33 76 -52z m-4484 42 c-3 -16 -12 -80 -21 -143 -20
-143 -22 -150 -45 -150 -36 0 -51 13 -81 72 l-30 60 21 23 c13 14 29 21 39 18
13 -4 13 -3 2 5 -12 8 -4 23 39 76 58 71 85 85 76 39z m12424 -31 c25 -31 74
-90 108 -130 35 -40 61 -76 57 -80 -4 -4 -10 -1 -12 6 -3 6 -9 12 -15 12 -6 0
-3 -9 7 -20 12 -13 21 -17 25 -10 4 7 12 5 21 -6 8 -10 9 -15 2 -11 -6 4 -13
3 -15 -1 -1 -5 -30 -16 -63 -25 -56 -16 -30 -17 40 -2 20 4 37 1 50 -9 18 -15
11 -16 -97 -14 -81 2 -119 6 -122 15 -3 6 -8 38 -11 70 l-7 59 41 19 c23 10
44 22 47 27 3 5 -11 1 -30 -9 -20 -9 -38 -14 -41 -12 -2 3 -9 39 -15 80 -6 41
-15 76 -20 77 -12 4 -14 22 -2 22 4 -1 27 -27 52 -58z m282 -59 c27 -58 48
-106 46 -108 -9 -7 -167 69 -161 78 4 6 1 7 -7 2 -15 -9 -8 15 26 93 15 35 28
51 35 46 7 -4 34 -54 61 -111z m79 70 c34 -10 37 -44 11 -108 -13 -33 -25 -62
-27 -63 -3 -4 -105 205 -105 214 0 2 24 -6 53 -17 28 -12 59 -24 68 -26z
m-18931 -23 c-17 -33 -33 -60 -35 -60 -3 0 8 27 25 60 17 33 33 60 35 60 3 0
-8 -27 -25 -60z m470 45 c1 10 109 -194 109 -207 1 -7 -40 7 -132 46 l-37 16
15 37 c9 20 13 43 10 50 -2 8 -1 12 4 9 13 -8 23 23 16 48 -5 17 -4 18 4 6 6
-8 11 -10 11 -5z m170 -65 c0 -10 -11 -46 -24 -81 l-24 -63 -51 102 c-28 56
-51 106 -51 111 0 5 34 -4 75 -21 53 -22 75 -36 75 -48z m8283 23 c52 -21 63
-52 37 -106 -11 -25 -18 -32 -15 -17 6 24 5 24 -10 -3 -9 -16 -14 -36 -11 -44
5 -12 3 -13 -7 -5 -7 6 -28 42 -47 81 -18 39 -35 69 -37 67 -3 -2 12 -36 32
-76 20 -40 35 -74 33 -75 -5 -5 -140 53 -151 64 -8 8 39 151 49 151 2 0 11
-12 19 -27 15 -26 14 -16 -1 23 -6 14 -3 14 32 -1 22 -9 56 -24 77 -32z m8320
-11 c37 -17 67 -36 67 -42 0 -15 -57 -140 -64 -140 -6 0 -116 214 -116 225 0
6 28 -5 113 -43z m-73 -63 c53 -104 54 -116 19 -159 l-21 -24 -50 52 c-28 29
-48 55 -46 57 3 3 33 -7 67 -21 35 -14 65 -23 67 -21 2 2 -29 16 -68 32 -40
15 -75 29 -77 31 -4 3 50 154 55 154 2 0 27 -45 54 -101z m2276 55 c48 -21 83
-42 81 -48 -30 -74 -61 -136 -68 -136 -5 0 -31 44 -58 98 -28 53 -50 94 -50
89 -1 -4 19 -48 45 -98 50 -101 52 -99 -44 -58 -60 26 -71 55 -47 125 12 37
23 53 32 50 7 -3 13 -1 13 4 0 14 3 13 96 -26z m-15002 -71 c-6 -97 -19 -173
-30 -173 -3 0 -19 9 -35 21 -36 26 -74 106 -58 125 9 11 16 11 41 -2 16 -9 32
-13 36 -10 3 3 1 6 -4 6 -5 0 -15 4 -23 9 -11 7 -4 21 30 64 24 31 45 56 47
56 1 1 0 -43 -4 -96z m6651 -20 l31 -91 -50 20 c-82 32 -86 31 -13 -4 l69 -33
-34 -30 c-30 -28 -31 -28 -9 -3 14 16 22 30 19 33 -2 3 -13 -4 -23 -15 -23
-26 -32 -25 -56 3 -25 29 -52 77 -42 77 4 0 2 5 -5 12 -7 7 -12 18 -12 26 0
20 84 124 89 110 2 -7 18 -54 36 -105z m20 105 c27 -12 30 -32 16 -118 l-7
-45 -27 80 c-15 44 -27 83 -27 88 0 10 15 9 45 -5z m840 -64 c39 -21 76 -39
83 -41 18 -2 14 3 55 -80 l36 -71 -62 -11 c-151 -26 -149 -26 -181 18 -16 21
-30 54 -31 73 -1 18 -6 66 -10 107 l-7 75 23 -15 c13 -9 56 -33 94 -55z
m-11034 -29 c18 -47 36 -85 41 -85 5 0 6 -5 3 -11 -4 -6 -1 -9 7 -7 14 3 38
-22 78 -77 8 -11 -3 -4 -25 15 -29 27 -34 29 -22 10 10 -13 17 -27 17 -31 0
-3 -53 2 -117 12 -65 10 -121 19 -126 19 -9 0 -83 148 -76 154 6 6 172 84 181
85 4 1 21 -37 39 -84z m4626 40 l89 -39 -30 -69 c-30 -67 -32 -68 -63 -63 -18
2 -45 11 -60 18 -29 14 -73 80 -73 111 0 26 28 89 39 85 5 -1 49 -21 98 -43z
m-5126 8 c-12 -20 -14 -14 -5 12 4 9 9 14 11 11 3 -2 0 -13 -6 -23z m674 -35
c-4 -35 -7 -73 -8 -85 -1 -26 -10 -28 -53 -13 -19 7 -30 17 -30 29 0 11 3 18
7 15 12 -7 49 47 42 60 -3 6 -3 8 2 4 12 -11 35 11 35 33 0 11 2 19 6 19 3 0
2 -28 -1 -62z m4717 17 c62 -25 118 -45 126 -45 14 0 83 -139 75 -153 -2 -4
-13 -3 -23 3 -10 5 -25 10 -32 9 -7 0 -4 -4 7 -8 13 -5 -6 -11 -65 -19 l-85
-11 -37 42 c-37 41 -49 65 -27 51 6 -3 4 4 -4 17 -8 13 -23 47 -33 76 -9 29
-20 50 -24 48 -3 -2 -7 5 -7 16 -1 10 3 19 8 19 5 0 60 -20 121 -45z m5345 23
c-3 -8 -6 -5 -6 6 -1 11 2 17 5 13 3 -3 4 -12 1 -19z m2706 -21 l93 -42 -28
-60 c-15 -33 -29 -63 -30 -67 -2 -4 -24 -2 -51 3 -43 10 -51 16 -83 66 -35 54
-35 57 -23 99 8 24 17 44 20 44 4 0 50 -19 102 -43z m-2937 -4 c8 -21 17 -45
19 -53 2 -8 9 -28 16 -45 7 -16 11 -36 10 -43 -1 -6 11 -29 26 -49 l28 -36
-35 6 c-19 3 -68 9 -107 13 -40 4 -70 10 -67 15 3 5 -6 5 -19 0 -22 -9 -26 -4
-60 65 l-37 75 92 44 c51 24 99 44 105 45 7 0 20 -17 29 -37z m4393 -22 c45
-61 86 -103 94 -95 2 3 21 -18 41 -46 43 -60 40 -64 -10 -12 -36 37 -36 37
-14 4 12 -18 20 -36 17 -38 -3 -3 -52 2 -109 12 -56 9 -111 17 -120 18 -12 0
-20 11 -23 31 -10 58 -23 150 -21 150 0 1 17 8 36 17 19 9 42 17 51 17 8 1 35
-26 58 -58z m524 -10 c43 -17 84 -31 91 -31 12 0 86 -116 86 -135 0 -4 -17 -4
-37 -1 -24 4 -33 3 -25 -2 9 -6 -13 -12 -64 -16 l-78 -7 -35 36 -36 35 35 -4
c33 -5 32 -5 -5 5 -38 11 -41 15 -72 93 -18 45 -33 85 -33 89 0 4 21 -2 48
-12 26 -10 82 -33 125 -50z m-13219 -25 c41 -96 41 -96 21 -96 -9 0 0 -14 23
-35 l37 -35 -80 6 c-44 3 -94 10 -111 15 -17 5 -38 7 -47 4 -11 -5 -25 11 -51
58 -20 35 -36 67 -36 71 0 7 178 94 196 95 7 1 28 -37 48 -83z m141 37 c-3
-27 -8 -72 -10 -101 -5 -72 -12 -79 -47 -45 -31 29 -63 81 -55 90 3 2 22 -3
42 -11 49 -21 58 -20 17 2 l-33 18 37 47 c20 26 41 47 46 47 6 0 7 -19 3 -47z
m1086 7 c49 -22 94 -40 100 -40 6 0 9 -3 7 -7 -2 -5 -17 -34 -33 -66 -29 -58
-30 -58 -65 -52 -47 9 -52 14 -94 98 -35 68 -40 107 -14 107 6 0 50 -18 99
-40z m3674 -33 l109 -42 33 -59 c18 -32 33 -59 33 -60 0 -1 -17 -2 -37 -2 -21
0 -66 -4 -100 -9 -58 -7 -64 -6 -93 19 -38 31 -26 33 65 11 33 -8 69 -14 80
-14 11 0 -31 13 -93 27 l-113 27 -35 79 c-19 44 -34 83 -34 88 0 4 17 1 38 -7
20 -8 86 -34 147 -58z m1181 51 c21 -69 76 -169 103 -189 17 -13 31 -27 31
-33 0 -5 -17 7 -38 27 -21 20 -43 37 -50 37 -6 0 5 -16 26 -36 l37 -36 -40 6
c-22 3 -68 6 -103 6 -37 0 -61 4 -57 9 3 6 -8 8 -27 5 -32 -5 -34 -3 -67 60
-19 36 -32 69 -28 72 8 8 188 92 199 93 4 1 10 -9 14 -21z m-5415 -19 c-5 -13
-10 -19 -10 -12 -1 15 10 45 15 40 3 -2 0 -15 -5 -28z m8880 -9 c49 -22 94
-40 99 -40 6 0 10 -2 10 -5 0 -12 -63 -115 -70 -115 -4 0 -22 3 -39 6 -28 6
-37 17 -72 85 -40 81 -47 109 -28 109 6 0 51 -18 100 -40z m876 -43 c30 -93
28 -112 -2 -25 -33 95 -38 114 -29 105 4 -4 18 -40 31 -80z m-11443 -4 c-26
-68 -34 -84 -34 -67 0 9 38 113 46 126 15 24 10 0 -12 -59z m8342 30 c-22 -41
-79 -121 -73 -102 7 20 76 129 83 129 2 0 -2 -12 -10 -27z m4783 -61 c13 -35
21 -65 19 -68 -3 -2 -17 31 -32 74 -15 42 -23 72 -18 67 5 -6 19 -38 31 -73z
m3511 3 c-12 -36 -24 -64 -27 -61 -3 2 5 35 17 71 12 36 24 64 27 61 3 -2 -5
-35 -17 -71z m614 16 c43 -19 47 -23 35 -39 -11 -14 -9 -13 9 2 12 11 22 16
22 12 0 -13 -54 -86 -64 -86 -22 0 -124 93 -149 136 -4 8 -5 18 -2 24 6 9 40
-2 149 -49z m-18925 -3 c-24 -63 -43 -96 -33 -58 10 37 42 110 48 110 3 0 -4
-23 -15 -52z m6463 0 c40 -61 61 -98 54 -98 -2 0 -22 28 -43 63 -53 83 -55 87
-50 87 2 0 20 -24 39 -52z m1852 -22 c-22 -31 -43 -56 -47 -56 -4 0 11 27 34
60 24 33 45 58 47 55 2 -2 -13 -29 -34 -59z m4472 33 c38 -16 70 -32 73 -34 2
-3 -9 -21 -24 -40 -15 -20 -25 -38 -22 -41 2 -2 17 14 32 36 15 22 32 40 37
40 5 0 -5 -19 -23 -42 -18 -24 -34 -45 -35 -47 -2 -2 -21 10 -42 27 -37 29
-93 132 -72 132 4 0 39 -14 76 -31z m-12214 -6 c37 -16 68 -32 68 -36 0 -14
-43 -67 -55 -67 -6 0 -22 12 -36 28 -26 29 -63 102 -52 102 4 0 37 -12 75 -27z
m16062 -30 c-9 -26 -21 -52 -26 -58 -5 -5 1 18 13 52 13 35 25 61 27 58 2 -2
-4 -25 -14 -52z m-13299 17 c-4 -12 -9 -19 -12 -17 -3 3 -2 15 2 27 4 12 9 19
12 17 3 -3 2 -15 -2 -27z m5626 -34 c4 -5 12 -5 18 -2 23 15 10 -11 -22 -42
l-33 -32 -36 38 c-36 37 -58 72 -58 91 0 10 121 -38 131 -53z m7523 -17 c3
-13 -3 -6 -13 16 -11 22 -20 47 -20 55 0 17 23 -34 33 -71z m-9846 17 c-24
-30 -47 -55 -51 -55 -4 -1 11 23 35 53 24 30 47 55 51 55 4 1 -11 -23 -35 -53z
m1559 -72 c-4 -4 -78 101 -86 121 -2 6 18 -19 44 -53 25 -35 45 -66 42 -68z
m6771 91 c-6 -14 -13 -24 -14 -22 -6 6 9 47 17 47 5 0 3 -11 -3 -25z m3192
-42 c29 -65 19 -63 -13 3 -15 31 -23 53 -18 49 6 -3 20 -27 31 -52z m-13200 2
c-24 -24 -45 -43 -48 -41 -3 4 79 85 88 86 2 0 -16 -20 -40 -45z m4914 -54 c4
-9 -12 7 -37 34 -26 28 -46 54 -47 59 0 11 70 -68 84 -93z m9593 73 c18 -8 33
-16 33 -18 0 -2 -12 -11 -26 -21 -26 -17 -26 -16 -55 17 -46 53 -37 57 48 22z
m-18827 -34 c-43 -54 -49 -51 -9 5 18 25 34 43 37 40 2 -2 -10 -22 -28 -45z
m476 34 c36 -17 37 -18 25 -48 -6 -16 -11 -14 -40 23 -36 45 -35 48 15 25z
m6121 0 c41 -16 43 -18 27 -35 -23 -26 -28 -24 -58 16 -31 40 -28 41 31 19z
m-47 -26 l23 -33 -26 24 c-15 14 -27 28 -27 33 0 14 5 9 30 -24z m-3880 18 c0
-2 -8 -10 -17 -17 -16 -13 -17 -12 -4 4 13 16 21 21 21 13z m6149 -7 c36 -13
40 -25 10 -34 -19 -6 -48 16 -49 38 0 9 1 9 39 -4z m2032 -6 c13 -16 12 -17
-3 -4 -10 7 -18 15 -18 17 0 8 8 3 21 -13z m4086 6 c27 -10 27 -11 9 -25 -17
-12 -22 -12 -38 3 -34 31 -21 41 29 22z m4253 -9 c6 -11 8 -20 6 -20 -3 0 -10
9 -16 20 -6 11 -8 20 -6 20 3 0 10 -9 16 -20z m-8705 -68 c-5 -5 -64 61 -65
70 0 4 15 -9 34 -30 19 -20 33 -39 31 -40z m2143 53 c-6 -14 -13 -23 -15 -21
-5 5 15 46 22 46 3 0 -1 -11 -7 -25z m4042 22 c0 -2 -15 -16 -32 -33 l-33 -29
29 33 c28 30 36 37 36 29z m477 -8 c22 -8 24 -12 13 -19 -21 -13 -24 -13 -38
10 -14 23 -13 24 25 9z m-12208 -8 c9 -6 10 -11 2 -15 -13 -8 -31 1 -31 15 0
11 11 11 29 0z m1721 -7 c-8 -8 -23 -20 -34 -25 -13 -7 -9 -1 9 15 34 29 43
33 25 10z m12220 12 c0 -2 -8 -10 -17 -17 -16 -13 -17 -12 -4 4 13 16 21 21
21 13z m-16726 -45 c31 -34 3 -24 -30 10 -21 23 -23 29 -9 21 11 -5 29 -20 39
-31z m5006 23 c0 -2 -7 -4 -15 -4 -8 0 -15 4 -15 10 0 5 7 7 15 4 8 -4 15 -8
15 -10z m3755 -32 c-7 -7 -45 29 -45 41 0 6 11 0 25 -13 14 -13 23 -26 20 -28z
m2345 38 c0 -5 -2 -10 -4 -10 -3 0 -8 5 -11 10 -3 6 -1 10 4 10 6 0 11 -4 11
-10z m-10645 -10 c-3 -5 -12 -10 -18 -10 -7 0 -6 4 3 10 19 12 23 12 15 0z
m9975 -20 c8 -5 11 -10 5 -10 -5 0 -21 10 -35 21 -24 20 -5 13 30 -11z m5680
-7 c0 -7 -39 17 -46 28 -3 6 5 3 20 -6 14 -10 26 -19 26 -22z m-18977 20 c-7
-2 -21 -2 -30 0 -10 3 -4 5 12 5 17 0 24 -2 18 -5z m5468 -8 c40 -9 75 -18 78
-20 2 -3 -25 -5 -60 -5 -48 0 -70 5 -89 20 -30 24 -22 24 71 5z m11157 8 c-10
-2 -26 -2 -35 0 -10 3 -2 5 17 5 19 0 27 -2 18 -5z m1046 -8 c44 -9 82 -18 85
-20 2 -3 -22 -5 -55 -5 -42 0 -68 6 -89 20 -16 11 -28 20 -25 20 3 0 41 -7 84
-15z m633 9 c-3 -3 -12 -4 -19 -1 -8 3 -5 6 6 6 11 1 17 -2 13 -5z m-14289
-11 c-10 -2 -28 -2 -40 0 -13 2 -5 4 17 4 22 1 32 -1 23 -4z m3280 -18 c-3 -3
-9 2 -12 12 -6 14 -5 15 5 6 7 -7 10 -15 7 -18z m2082 4 c16 -6 8 -7 -25 -3
-27 3 -57 10 -65 15 -17 11 48 1 90 -12z m1220 6 c11 -13 2 -15 -70 -15 -89 0
-97 4 -34 19 59 14 90 13 104 -4z m4915 -9 c6 -3 -13 -5 -41 -5 -28 -1 -58 5
-69 13 -16 12 -11 12 41 5 32 -5 64 -11 69 -13z m708 17 c-7 -2 -21 -2 -30 0
-10 3 -4 5 12 5 17 0 24 -2 18 -5z m3288 -10 c13 -16 12 -17 -3 -4 -10 7 -18
15 -18 17 0 8 8 3 21 -13z m-18504 1 c-3 -3 -12 -4 -19 -1 -8 3 -5 6 6 6 11 1
17 -2 13 -5z m1246 -1 c-13 -2 -33 -2 -45 0 -13 2 -3 4 22 4 25 0 35 -2 23 -4z
M363 440 c-13 -5 -23 -11 -23 -14 0 -7 40 6 46 15 6 10 6 10 -23 -1z M968 493
c7 -3 16 -2 19 1 4 3 -2 6 -13 5 -11 0 -14 -3 -6 -6z M905 480 c-13 -5 -14 -9
-5 -9 8 0 24 4 35 9 13 5 14 9 5 9 -8 0 -24 -4 -35 -9z M4280 360 c8 -5 20
-10 25 -10 6 0 3 5 -5 10 -8 5 -19 10 -25 10 -5 0 -3 -5 5 -10z M4330 340 c8
-5 20 -10 25 -10 6 0 3 5 -5 10 -8 5 -19 10 -25 10 -5 0 -3 -5 5 -10z M4380
320 c8 -5 20 -10 25 -10 6 0 3 5 -5 10 -8 5 -19 10 -25 10 -5 0 -3 -5 5 -10z
M4430 300 c8 -5 22 -9 30 -9 10 0 8 3 -5 9 -27 12 -43 12 -25 0z M5868 493 c7
-3 16 -2 19 1 4 3 -2 6 -13 5 -11 0 -14 -3 -6 -6z M5908 483 c7 -3 16 -2 19 1
4 3 -2 6 -13 5 -11 0 -14 -3 -6 -6z M5948 473 c7 -3 16 -2 19 1 4 3 -2 6 -13
5 -11 0 -14 -3 -6 -6z M5988 463 c7 -3 16 -2 19 1 4 3 -2 6 -13 5 -11 0 -14
-3 -6 -6z M3928 103 c7 -3 16 -2 19 1 4 3 -2 6 -13 5 -11 0 -14 -3 -6 -6z
M10405 430 c-3 -6 1 -7 9 -4 18 7 21 14 7 14 -6 0 -13 -4 -16 -10z M10540 270
c-8 -5 -10 -10 -5 -10 6 0 17 5 25 10 8 5 11 10 5 10 -5 0 -17 -5 -25 -10z
M10450 230 c-19 -11 -30 -19 -25 -19 6 0 26 8 45 19 19 11 31 19 25 19 -5 0
-26 -8 -45 -19z M5440 270 c8 -5 20 -10 25 -10 6 0 3 5 -5 10 -8 5 -19 10 -25
10 -5 0 -3 -5 5 -10z M5490 250 c8 -5 20 -10 25 -10 6 0 3 5 -5 10 -8 5 -19
10 -25 10 -5 0 -3 -5 5 -10z M5540 230 c8 -5 20 -10 25 -10 6 0 3 5 -5 10 -8
5 -19 10 -25 10 -5 0 -3 -5 5 -10z M9300 315 c-25 -13 -40 -24 -35 -24 6 0 30
11 55 24 25 13 41 24 35 24 -5 0 -30 -11 -55 -24z M14539 285 c18 -8 36 -15
40 -15 13 1 -45 29 -59 29 -8 0 0 -6 19 -14z M14630 245 c25 -13 52 -24 60
-24 8 -1 -9 10 -38 24 -68 32 -81 32 -22 0z M16285 289 c44 -21 85 -38 90 -38
6 0 -28 18 -74 40 -46 21 -87 39 -90 38 -3 0 30 -18 74 -40z M15810 310 c8 -5
20 -10 25 -10 6 0 3 5 -5 10 -8 5 -19 10 -25 10 -5 0 -3 -5 5 -10z M12990 400
c8 -5 20 -10 25 -10 6 0 3 5 -5 10 -8 5 -19 10 -25 10 -5 0 -3 -5 5 -10z
M17195 120 c-13 -5 -14 -9 -5 -9 8 0 24 4 35 9 13 5 14 9 5 9 -8 0 -24 -4 -35
-9z M2330 275 c14 -8 30 -14 35 -14 6 0 -1 6 -15 14 -14 8 -29 14 -35 14 -5 0
1 -6 15 -14z M6290 265 c14 -8 30 -14 35 -14 6 0 -1 6 -15 14 -14 8 -29 14
-35 14 -5 0 1 -6 15 -14z M9176 295 c-9 -26 -7 -32 5 -12 6 10 9 21 6 23 -2 3
-7 -2 -11 -11z M17506 305 c-9 -26 -7 -32 5 -12 6 10 9 21 6 23 -2 3 -7 -2
-11 -11z M17482 245 c-7 -14 -12 -31 -12 -38 1 -7 7 3 16 22 17 39 13 54 -4
16z M12088 153 c7 -3 16 -2 19 1 4 3 -2 6 -13 5 -11 0 -14 -3 -6 -6z M12128
143 c7 -3 16 -2 19 1 4 3 -2 6 -13 5 -11 0 -14 -3 -6 -6z M12288 103 c7 -3 16
-2 19 1 4 3 -2 6 -13 5 -11 0 -14 -3 -6 -6z M6005 150 c11 -5 27 -9 35 -9 9 0
8 4 -5 9 -11 5 -27 9 -35 9 -9 0 -8 -4 5 -9z M6068 133 c7 -3 16 -2 19 1 4 3
-2 6 -13 5 -11 0 -14 -3 -6 -6z M6138 113 c7 -3 16 -2 19 1 4 3 -2 6 -13 5
-11 0 -14 -3 -6 -6z M16085 114 c28 -7 57 -13 65 -13 8 0 -7 7 -35 15 -27 7
-57 13 -65 13 -8 0 8 -7 35 -15z M2818 123 c7 -3 16 -2 19 1 4 3 -2 6 -13 5
-11 0 -14 -3 -6 -6z M2778 113 c7 -3 16 -2 19 1 4 3 -2 6 -13 5 -11 0 -14 -3
-6 -6z M2738 103 c7 -3 16 -2 19 1 4 3 -2 6 -13 5 -11 0 -14 -3 -6 -6z M8905
120 c-13 -5 -14 -9 -5 -9 8 0 24 4 35 9 13 5 14 9 5 9 -8 0 -24 -4 -35 -9z
M8858 103 c7 -3 16 -2 19 1 4 3 -2 6 -13 5 -11 0 -14 -3 -6 -6z"/>
</g>
</svg>
