<?xml version="1.0" standalone="no"?>
<!DOCTYPE svg PUBLIC "-//W3C//DTD SVG 20010904//EN"
 "http://www.w3.org/TR/2001/REC-SVG-20010904/DTD/svg10.dtd">
<svg version="1.0" xmlns="http://www.w3.org/2000/svg"
 width="60.000000pt" height="2000.000000pt" viewBox="0 0 60.000000 2000.000000"
 preserveAspectRatio="xMidYMid meet">
<metadata>
Created by potrace 1.16, written by Peter Selinger 2001-2019
</metadata>
<g transform="translate(0.000000,2000.000000) scale(0.100000,-0.100000)"
fill="#000000" stroke="none">
<path d="M434 19985 c-11 -7 -94 -48 -186 -90 l-166 -78 -6 -45 c-13 -95 -10
-106 50 -177 41 -47 71 -72 106 -87 l50 -21 -99 -51 -98 -51 -7 -45 c-4 -25
-11 -92 -16 -150 l-9 -105 45 -46 c33 -36 67 -57 143 -89 54 -23 99 -43 99
-44 0 -2 -30 -27 -67 -57 -89 -71 -213 -189 -213 -204 0 -40 211 -172 343
-215 37 -12 67 -27 67 -33 0 -7 3 -22 6 -34 5 -19 -13 -31 -201 -122 l-208
-102 7 -77 7 -77 71 -72 c39 -39 82 -74 95 -77 33 -9 29 -22 -14 -39 -21 -9
-67 -33 -101 -55 l-64 -38 -5 -155 -5 -154 57 -42 c32 -23 93 -56 137 -74 63
-25 77 -34 66 -44 -7 -6 -55 -47 -105 -90 -62 -51 -103 -95 -123 -130 -16 -29
-30 -55 -30 -58 0 -18 249 -159 349 -197 61 -24 66 -28 69 -58 3 -31 1 -34
-50 -55 -87 -35 -321 -155 -347 -177 l-24 -21 23 -74 c21 -68 29 -79 93 -137
39 -35 80 -68 91 -75 23 -13 30 -8 -58 -42 -16 -7 -56 -31 -88 -54 l-59 -42 5
-155 5 -155 68 -42 c37 -23 95 -52 127 -64 l59 -23 -34 -25 c-19 -14 -70 -61
-115 -103 -68 -67 -82 -85 -93 -129 -8 -28 -9 -54 -5 -59 13 -12 264 -147 339
-181 36 -17 65 -37 65 -44 0 -39 -23 -62 -78 -80 -134 -42 -342 -166 -342
-204 0 -40 74 -144 146 -203 41 -35 74 -66 74 -69 0 -4 -31 -19 -69 -34 -49
-19 -82 -41 -114 -74 l-44 -46 8 -85 c5 -47 11 -115 14 -151 l6 -65 110 -54
c60 -30 109 -57 109 -61 0 -4 -22 -24 -49 -43 -27 -20 -77 -67 -110 -105 -59
-66 -61 -71 -61 -124 l0 -55 77 -36 c43 -21 135 -69 205 -107 l128 -70 -23
-34 c-18 -29 -36 -40 -112 -66 -126 -43 -232 -105 -268 -156 l-30 -41 51 -72
c30 -43 77 -92 116 -122 36 -28 66 -54 66 -58 0 -3 -40 -25 -89 -47 -74 -34
-94 -48 -115 -82 -24 -37 -26 -50 -26 -151 0 -92 3 -117 21 -154 20 -40 30
-47 115 -86 52 -23 94 -46 94 -51 0 -4 -27 -29 -60 -54 -64 -49 -160 -167
-159 -194 0 -9 8 -36 17 -60 16 -41 21 -45 107 -81 79 -33 227 -113 278 -152
16 -12 15 -16 -22 -52 -30 -30 -60 -45 -126 -66 -81 -27 -210 -94 -232 -122
-6 -7 -13 -29 -16 -49 -5 -32 0 -41 56 -105 33 -38 83 -86 111 -107 28 -21 52
-42 54 -46 1 -4 -45 -30 -103 -57 -122 -57 -119 -51 -130 -219 -3 -55 -8 -107
-11 -116 -9 -32 66 -100 154 -140 l84 -39 -76 -61 c-56 -45 -87 -79 -116 -128
-22 -37 -40 -71 -40 -76 0 -5 16 -31 35 -59 32 -47 42 -54 115 -80 84 -30 247
-122 265 -150 8 -13 1 -24 -35 -55 -34 -30 -67 -46 -137 -67 -103 -30 -239
-114 -229 -141 3 -8 6 -24 6 -35 0 -22 123 -154 189 -203 22 -17 41 -33 41
-36 0 -4 -22 -16 -49 -27 -27 -11 -81 -39 -120 -62 l-71 -41 -1 -72 c0 -40 -4
-107 -8 -150 l-7 -79 59 -49 c32 -27 62 -49 67 -49 5 0 29 -9 55 -20 l46 -20
-83 -71 c-71 -61 -87 -80 -110 -136 -16 -37 -28 -71 -28 -77 0 -7 24 -35 53
-63 43 -41 68 -56 142 -82 92 -33 225 -118 225 -143 -1 -27 -117 -96 -206
-123 -85 -26 -105 -37 -184 -104 l-34 -29 29 -43 c17 -23 76 -83 132 -132 57
-50 101 -93 98 -95 -3 -3 -38 -20 -77 -37 -40 -17 -97 -49 -126 -69 l-53 -38
2 -153 1 -153 77 -45 c42 -25 92 -52 111 -60 l35 -14 -30 -16 c-16 -8 -60 -44
-98 -79 -64 -60 -68 -66 -81 -132 -8 -38 -12 -74 -10 -80 13 -30 135 -105 209
-130 44 -14 92 -34 106 -44 54 -37 99 -78 99 -90 0 -24 -150 -110 -242 -138
-83 -26 -93 -32 -135 -81 -55 -64 -64 -49 114 -199 l122 -102 -97 -42 c-62
-26 -114 -56 -143 -83 l-46 -42 8 -70 c4 -38 9 -105 10 -148 1 -90 -4 -84 138
-155 l74 -37 -46 -20 c-30 -13 -66 -44 -107 -89 l-61 -70 3 -70 3 -71 75 -51
c50 -34 104 -61 162 -80 71 -22 95 -36 129 -70 41 -42 42 -44 25 -63 -32 -35
-169 -108 -259 -137 -88 -28 -88 -29 -118 -84 l-30 -55 27 -20 c35 -25 219
-165 246 -186 19 -15 15 -18 -92 -65 -91 -39 -119 -57 -147 -91 l-34 -42 2
-108 c1 -61 9 -128 17 -155 15 -45 17 -47 111 -92 l96 -45 -60 -26 c-62 -27
-71 -36 -130 -120 -37 -54 -36 -44 -10 -172 6 -28 151 -111 263 -149 70 -25
87 -35 109 -67 l27 -39 -24 -19 c-47 -37 -196 -113 -280 -144 l-85 -32 -12
-53 c-6 -30 -9 -58 -7 -62 3 -5 31 -21 62 -37 43 -22 190 -126 221 -157 2 -2
-5 -6 -15 -10 -10 -4 -71 -31 -134 -61 -111 -52 -116 -56 -131 -97 -10 -27
-16 -85 -18 -153 l-2 -110 33 -43 c25 -33 50 -50 103 -73 39 -16 74 -32 78
-37 5 -4 -25 -22 -66 -40 -72 -31 -75 -35 -111 -100 -33 -62 -36 -75 -33 -131
l3 -63 110 -58 c60 -32 147 -72 192 -90 72 -27 86 -36 100 -65 10 -20 12 -37
6 -42 -20 -19 -204 -117 -294 -156 -103 -45 -110 -54 -96 -130 6 -29 15 -36
84 -68 42 -19 106 -58 141 -86 l64 -50 -29 -12 c-83 -35 -218 -100 -242 -118
-27 -19 -29 -25 -31 -103 -1 -46 -5 -111 -10 -146 l-7 -63 50 -47 c33 -31 73
-56 114 -71 34 -13 62 -25 62 -27 0 -2 -40 -24 -88 -48 l-89 -45 -21 -65 c-13
-38 -22 -92 -22 -126 0 -56 2 -61 27 -72 16 -6 93 -41 173 -78 80 -37 159 -73
177 -79 41 -16 56 -67 27 -88 -17 -13 -15 -14 19 -11 40 2 43 8 31 79 -6 34
-11 39 -73 65 -90 37 -264 124 -259 129 2 2 49 23 103 46 55 22 132 59 172 81
l71 41 7 136 c3 75 8 143 11 152 6 22 -100 104 -170 130 -31 12 -55 24 -53 26
2 2 45 23 94 47 85 42 91 47 105 88 8 24 16 84 17 133 1 50 4 100 7 111 5 19
-1 24 -43 38 -26 8 -94 22 -150 30 -134 18 -233 62 -233 101 0 22 7 29 43 43
107 41 367 186 367 205 0 6 -10 35 -22 64 l-21 52 -92 35 c-124 47 -242 111
-220 120 9 3 23 6 31 6 28 0 227 89 280 126 l54 37 0 154 0 153 -70 45 c-39
25 -72 45 -74 45 -2 0 -20 7 -40 15 l-36 15 103 54 102 54 7 108 c3 60 9 130
12 156 l7 47 -38 11 c-21 6 -90 18 -153 26 -129 17 -240 60 -240 91 0 31 13
41 90 69 116 43 309 156 324 190 2 7 -15 38 -38 71 -38 52 -49 60 -102 76 -69
22 -218 92 -234 112 -9 10 0 14 42 20 88 11 246 81 300 133 40 38 46 49 41 76
-2 17 -7 85 -11 151 l-7 119 -101 53 -102 52 82 40 c141 71 135 61 137 235 2
118 -1 150 -12 156 -15 9 -170 35 -264 46 -59 6 -145 45 -145 65 0 32 36 60
104 80 133 39 306 155 306 205 0 5 -26 35 -57 66 -50 48 -70 60 -143 83 -79
26 -197 92 -185 103 3 3 42 11 87 18 119 18 247 78 284 134 26 39 28 47 25
148 -1 69 -8 123 -18 150 -15 40 -23 47 -111 91 l-95 48 59 23 c79 31 177 108
169 133 -2 7 -6 72 -9 146 -4 96 -9 137 -18 142 -7 4 -89 18 -182 30 -123 17
-176 29 -193 42 -29 24 -29 30 5 66 19 21 51 37 112 55 90 27 239 112 252 144
19 47 9 69 -54 120 -45 37 -86 59 -152 83 -89 31 -181 87 -168 101 4 4 50 12
102 19 75 10 113 21 180 53 106 51 112 62 120 221 l6 120 -33 46 c-27 38 -46
51 -110 79 -43 17 -80 34 -82 36 -2 2 31 19 74 39 54 24 89 48 114 77 35 40
35 42 32 122 -4 105 -6 132 -15 183 -9 48 8 43 -211 73 -178 25 -181 26 -190
48 -13 32 62 84 163 114 72 21 106 37 166 82 42 31 76 59 75 64 -7 68 -114
153 -256 203 -82 29 -156 79 -141 95 7 6 176 33 218 35 14 0 59 19 100 42 l75
43 11 149 11 150 -50 47 c-28 27 -73 56 -106 69 -31 12 -60 25 -64 29 -4 4 33
25 83 48 84 39 92 45 110 86 14 33 19 73 21 155 2 104 1 112 -24 150 -31 46
-20 43 -226 71 -85 11 -158 23 -162 26 -39 24 69 100 195 137 76 23 97 34 152
83 35 30 64 58 64 61 0 2 -12 19 -26 38 -32 42 -186 136 -282 171 -44 16 -80
37 -93 53 l-21 26 39 11 c21 6 87 17 145 24 98 12 112 16 170 54 l63 41 2 155
3 155 -63 42 c-34 23 -84 51 -112 61 l-50 20 102 50 101 51 6 53 c3 29 10 98
15 153 l9 100 -42 43 -42 43 -145 19 c-182 25 -199 29 -199 45 0 23 133 95
230 126 81 25 95 33 140 81 27 29 49 58 50 65 1 27 -212 160 -325 203 -59 22
-95 51 -95 75 0 13 21 18 206 44 118 17 121 18 173 61 39 33 51 49 47 65 -2
11 -8 79 -11 150 l-7 131 -72 40 c-39 22 -86 46 -104 54 l-34 13 65 32 c35 18
83 45 107 61 46 32 43 16 51 244 l3 84 -55 43 c-53 41 -60 44 -169 58 -156 21
-185 28 -185 45 0 22 140 97 240 128 89 28 91 30 128 86 21 32 36 63 34 70 -5
14 -250 151 -350 195 -63 28 -68 33 -65 58 3 30 8 31 257 65 94 13 94 13 131
58 l38 45 -9 100 c-4 55 -11 122 -15 148 l-6 48 -101 51 -101 50 59 24 c33 13
85 44 115 67 l55 43 -3 150 -3 149 -69 43 c-62 38 -79 44 -179 57 -151 20
-165 24 -149 42 17 21 178 101 268 133 65 23 78 32 93 63 10 20 20 51 23 69 5
32 4 34 -53 58 -121 51 -353 182 -353 199 1 38 17 44 198 69 l180 26 21 43
c18 36 21 62 21 155 0 100 -3 116 -24 153 -21 35 -37 47 -111 80 -47 21 -82
41 -78 45 4 4 37 19 73 34 37 15 83 45 108 69 37 37 41 45 36 74 -3 18 -9 86
-13 150 l-6 118 -79 42 c-62 34 -96 45 -160 53 -124 16 -146 20 -146 30 0 10
211 118 295 150 77 30 87 42 83 110 l-3 54 -80 32 c-44 17 -123 55 -175 84
-156 87 -155 85 -122 128 16 20 38 26 197 49 99 14 183 31 187 37 4 6 8 45 8
86 1 41 4 105 9 142 l7 68 -45 44 c-27 26 -76 58 -116 76 l-70 32 65 30 c36
16 75 34 87 38 12 5 34 27 48 49 23 37 25 50 25 156 0 162 -11 183 -128 236
-64 30 -110 43 -172 51 -47 6 -89 14 -93 18 -4 3 78 48 182 98 104 50 192 95
195 100 2 4 -2 35 -10 68 l-16 60 -81 27 c-87 28 -273 130 -291 159 -9 14 -5
24 19 47 28 28 41 32 174 51 79 11 160 24 180 28 l36 8 3 156 2 156 -52 37
c-28 21 -78 49 -111 64 l-59 27 98 49 c114 58 111 53 120 215 3 58 7 111 10
118 2 7 -13 33 -33 57 -47 57 -183 119 -297 136 l-77 12 113 54 c192 92 232
113 257 132 l24 19 -40 0 c-22 0 -49 -5 -59 -13z m46 0 c0 -2 -10 -9 -22 -15
-22 -11 -22 -10 -4 4 21 17 26 19 26 11z m-310 -158 l-65 -32 -3 -60 c-3 -58
-2 -63 33 -100 42 -46 69 -84 64 -90 -2 -2 -29 26 -59 61 -53 63 -55 66 -52
117 2 29 5 59 8 67 4 17 99 69 124 69 8 0 -14 -15 -50 -32z m53 -63 c31 -3 57
-9 57 -13 0 -4 -16 -44 -35 -89 -20 -45 -33 -88 -30 -95 4 -6 -19 15 -49 48
-51 55 -56 63 -51 95 10 60 16 71 33 66 9 -3 43 -8 75 -12z m155 -49 c34 -15
62 -31 62 -36 0 -5 -44 -31 -97 -58 -54 -28 -95 -50 -90 -50 4 -1 48 19 98 45
101 50 99 52 58 -44 -26 -60 -55 -71 -125 -47 -35 12 -53 23 -50 31 3 7 0 14
-6 16 -6 2 5 39 27 91 21 50 43 86 49 84 6 -3 39 -17 74 -32z m103 -62 c13
-16 12 -17 -3 -4 -17 13 -22 21 -14 21 2 0 10 -8 17 -17z m-6 -29 c17 -26 16
-26 -17 -55 -40 -34 -52 -36 -42 -7 10 34 34 88 38 88 2 0 11 -12 21 -26z m55
-28 c0 -2 -8 -10 -17 -17 -16 -13 -17 -12 -4 4 13 16 21 21 21 13z m-50 -41
c-10 -12 -10 -15 2 -15 8 0 19 5 26 12 16 16 16 -31 0 -127 -6 -38 -11 -80
-11 -92 1 -17 -18 -30 -99 -68 -55 -26 -132 -60 -171 -76 -43 -18 -90 -47
-117 -72 -26 -25 -35 -30 -20 -12 14 16 33 36 43 43 9 7 17 19 17 26 0 8 -16
-1 -37 -20 -20 -19 -37 -33 -38 -31 -1 1 3 49 9 107 6 58 14 98 18 90 3 -8 4
1 1 20 -5 35 -4 35 63 68 79 39 75 41 124 -68 18 -41 37 -79 42 -85 5 -5 -2
17 -17 50 -46 101 -55 124 -55 132 0 4 18 16 40 25 22 9 38 13 35 8 -3 -4 4
-6 15 -3 11 3 17 9 14 14 -3 5 3 6 12 2 11 -4 15 -3 11 4 -5 7 1 9 15 5 12 -3
19 -1 15 5 -3 5 0 10 8 10 8 0 15 -5 15 -11 0 -11 29 24 30 36 0 4 -8 5 -17 2
-12 -4 -9 1 7 15 30 24 37 27 20 6z m-92 -420 c2 -2 -44 -26 -104 -54 -59 -28
-108 -50 -109 -49 -2 2 9 33 23 70 34 85 48 92 127 60 33 -13 62 -25 63 -27z
m-180 17 c-1 -4 -12 -31 -22 -60 -11 -29 -23 -52 -26 -52 -10 0 -54 49 -49 54
40 40 106 79 97 58z m253 -39 c21 -16 39 -32 39 -37 0 -22 -93 -124 -136 -149
-28 -16 -33 4 -15 51 55 136 60 145 79 131 14 -11 13 -9 -2 9 -26 30 -12 28
35 -5z m-97 -75 c-19 -46 -39 -87 -43 -91 -10 -10 -145 44 -145 58 0 9 198
114 216 115 4 0 -9 -37 -28 -82z m-224 -3 c25 -30 3 -25 -26 6 -22 24 -24 29
-8 21 11 -6 27 -18 34 -27z m370 6 c-5 -11 -15 -23 -21 -27 -6 -3 -3 5 6 20
20 30 30 35 15 7z m8 -146 c-2 -78 -6 -116 -15 -119 -6 -3 -38 -8 -70 -11
l-59 -7 -19 41 c-10 23 -22 44 -27 47 -5 3 -1 -11 9 -30 9 -20 14 -38 12 -41
-3 -2 -38 -9 -79 -15 -41 -6 -77 -16 -82 -22 -4 -7 -10 -9 -14 -5 -4 4 -5 8
-3 10 2 2 58 48 123 103 169 141 181 150 172 136 -4 -6 -3 -12 2 -12 5 0 15
-28 22 -62 8 -34 15 -57 18 -50 2 7 -1 35 -8 61 -9 37 -9 55 0 70 6 12 13 21
16 21 3 0 4 -52 2 -115z m-403 -223 l-38 -37 33 43 c18 24 35 40 38 37 3 -3
-11 -22 -33 -43z m294 -213 c34 -12 60 -23 57 -26 -5 -5 -136 36 -136 43 0 8
16 4 79 -17z m88 -91 c-3 -8 -6 -5 -6 6 -1 11 2 17 5 13 3 -3 4 -12 1 -19z
m12 -42 c-13 -12 -112 -56 -102 -46 12 13 81 48 97 49 5 1 7 -1 5 -3z m-310
-150 c-10 -9 -89 -46 -89 -41 0 6 72 44 84 45 5 0 7 -2 5 -4z m-94 -141 c9
-79 -2 -67 -13 14 -5 34 -6 58 -2 54 4 -4 11 -35 15 -68z m148 50 c44 -5 57
-10 57 -23 0 -14 2 -15 10 -2 7 12 20 9 79 -20 39 -19 71 -37 71 -40 0 -25
-37 -108 -54 -122 -42 -35 -84 -42 -129 -22 -23 10 -43 19 -45 20 -1 1 13 36
33 79 19 43 34 80 31 82 -2 2 -21 -37 -43 -86 l-40 -90 -52 53 c-47 48 -51 56
-46 87 12 74 25 99 48 95 12 -3 48 -8 80 -11z m-126 -17 c-3 -8 -6 -5 -6 6 -1
11 2 17 5 13 3 -3 4 -12 1 -19z m346 -153 c-24 -17 -26 -14 -13 21 10 26 12
27 22 11 7 -14 6 -22 -9 -32z m31 -17 c-18 -21 -18 -21 0 -15 12 5 17 3 14 -5
-3 -7 -14 -64 -24 -127 l-19 -114 -70 -33 c-38 -18 -77 -34 -85 -36 -8 -2 -17
-6 -20 -9 -7 -9 -164 -77 -169 -73 -7 7 -50 198 -45 205 9 15 114 70 123 65
16 -10 185 59 195 80 5 11 32 34 60 51 62 38 64 39 40 11z m7 -201 c-12 -18
-21 -30 -21 -27 0 5 29 157 32 168 1 4 3 -19 5 -51 3 -46 0 -65 -16 -90z
m-415 -222 c-10 -15 -18 -25 -19 -23 -1 1 0 41 2 88 l4 85 15 -62 c14 -57 14
-64 -2 -88z m269 26 c36 -17 65 -32 65 -35 0 -6 -214 -116 -225 -116 -6 0 5
28 43 113 17 37 36 67 42 67 6 0 40 -13 75 -29z m-132 -48 c-14 -32 -29 -69
-34 -82 -9 -23 -10 -23 -37 -6 l-27 18 25 -28 25 -29 -42 30 c-24 16 -43 33
-43 38 0 25 49 77 90 95 69 30 72 27 43 -36z m-129 -13 c-10 -16 -20 -28 -22
-26 -4 5 28 56 35 56 2 0 -4 -13 -13 -30z m382 -12 l29 -33 -32 29 c-31 28
-38 36 -30 36 2 0 16 -15 33 -32z m-29 -10 c18 -13 33 -26 33 -29 0 -9 -101
-102 -106 -97 -2 3 8 33 22 67 14 35 23 65 21 67 -2 2 -16 -29 -32 -68 -15
-40 -29 -75 -31 -77 -3 -4 -154 50 -154 55 0 5 193 103 204 103 6 1 25 -9 43
-21z m35 -71 c-23 -23 -42 -48 -42 -55 0 -7 14 3 31 23 17 19 34 35 38 35 4 0
3 -44 -2 -97 -5 -54 -9 -110 -10 -125 -2 -30 -9 -33 -104 -44 l-61 -6 -26 48
c-14 27 -25 45 -26 41 0 -4 9 -25 20 -47 11 -22 20 -41 20 -43 0 -6 -181 -30
-186 -24 -5 5 76 76 238 210 52 42 105 89 118 102 13 14 26 25 29 25 3 0 -14
-19 -37 -43z m-382 -347 c-6 -11 -13 -20 -16 -20 -2 0 0 9 6 20 6 11 13 20 16
20 2 0 0 -9 -6 -20z m312 -218 c26 -10 51 -21 55 -26 7 -7 -107 32 -116 40
-10 9 18 3 61 -14z m75 -109 c-3 -10 -5 -2 -5 17 0 19 2 27 5 18 2 -10 2 -26
0 -35z m-62 -53 c-22 -10 -47 -19 -55 -19 -8 0 5 9 30 19 58 24 77 24 25 0z
m-266 -123 c-2 -2 -20 -14 -39 -26 l-35 -23 30 26 c17 14 34 26 39 26 5 0 7
-1 5 -3z m-21 -75 c10 -7 10 -15 0 -42 l-11 -34 -13 34 c-7 19 -13 38 -13 43
-1 9 21 9 37 -1z m1 -69 c11 36 19 47 35 48 21 0 21 1 1 9 -13 6 -1 7 35 3 30
-3 61 -6 68 -6 6 0 12 -3 12 -7 0 -4 16 -7 36 -8 19 -1 61 -15 93 -32 l59 -31
-10 -42 c-11 -50 -8 -47 -84 -86 -55 -28 -64 -30 -90 -19 -16 6 -37 12 -47 13
-9 1 -43 26 -75 56 -55 51 -91 113 -91 154 0 11 10 -7 22 -40 l21 -60 15 48z
m358 -80 c-3 -10 -5 -4 -5 12 0 17 2 24 5 18 2 -7 2 -21 0 -30z m-1 -70 c-4
-24 -3 -33 2 -25 6 9 12 -13 16 -64 l7 -78 -36 -35 -35 -36 4 35 c5 33 5 32
-5 -5 -11 -38 -14 -41 -96 -74 -46 -18 -86 -32 -88 -30 -1 2 19 58 45 124 27
66 49 127 50 137 0 14 110 87 134 88 4 0 5 -17 2 -37z m-167 -115 c-12 -29
-36 -91 -54 -137 l-33 -84 -71 -33 c-39 -18 -71 -32 -72 -31 -2 7 -9 43 -22
120 l-14 87 47 35 c49 36 66 44 55 24 -5 -7 -1 -7 11 1 14 8 155 65 171 69 2
1 -7 -23 -18 -51z m-24 -234 c6 -1 40 -15 77 -32 l67 -30 -15 -54 c-19 -63
-36 -92 -67 -113 -21 -13 -28 -13 -80 8 -31 12 -59 27 -61 33 -2 6 7 35 20 64
13 29 23 55 21 57 -5 4 -57 -111 -57 -126 0 -17 -12 -13 -67 22 l-50 32 11 35
c10 30 24 41 91 77 44 23 84 38 90 35 5 -4 15 -7 20 -8z m-228 -31 c-3 -10 -5
-4 -5 12 0 17 2 24 5 18 2 -7 2 -21 0 -30z m386 -125 c-31 -34 -41 -21 -22 29
10 27 11 27 25 9 12 -17 12 -22 -3 -38z m10 -33 c-37 -36 -37 -36 -5 -15 18
12 36 20 38 17 3 -3 -2 -52 -12 -109 -9 -56 -17 -111 -18 -120 0 -18 -14 -23
-101 -33 -27 -4 -57 -8 -65 -11 -10 -2 -21 11 -32 39 -10 23 -18 47 -18 53 0
6 27 30 59 53 60 44 96 78 98 95 1 10 86 75 91 71 2 -2 -14 -20 -35 -40z m47
-113 c0 -27 -6 -57 -14 -67 -12 -16 -12 -12 -5 31 4 27 8 57 8 67 1 9 3 17 6
17 3 0 5 -22 5 -48z m-241 -157 c-9 -9 -160 -28 -167 -21 -4 4 22 35 57 69
l64 62 25 -52 c14 -29 24 -55 21 -58z m-107 -155 c18 -11 29 -20 23 -20 -5 0
-23 9 -40 20 -39 26 -25 26 17 0z m255 -136 c-6 -6 -47 9 -47 17 0 5 11 3 25
-3 14 -6 24 -13 22 -14z m42 -138 c-9 -8 -153 -57 -146 -49 10 10 116 50 136
52 8 0 12 -1 10 -3z m-160 -60 c-10 -9 -169 -86 -169 -81 0 8 144 85 159 85 8
0 12 -2 10 -4z m-179 -89 c0 -2 -15 -16 -32 -33 l-33 -29 29 33 c28 30 36 37
36 29z m39 -104 c-5 -14 -8 -28 -5 -30 2 -3 7 5 11 17 7 21 11 21 78 15 40 -4
90 -9 112 -10 53 -2 130 -49 120 -73 -4 -9 -10 -25 -12 -35 -5 -16 -148 -97
-172 -97 -5 0 -46 30 -91 68 -55 45 -90 82 -106 114 -13 26 -24 51 -24 55 0 7
56 -82 62 -100 2 -4 15 -4 28 2 14 5 19 10 12 10 -7 1 -19 7 -26 14 -13 14
-56 82 -56 90 0 3 18 0 39 -5 37 -9 39 -12 30 -35z m320 -165 c-4 -35 4 -49
10 -18 5 24 7 10 7 -45 -1 -44 2 -92 6 -106 7 -23 2 -30 -40 -60 -26 -19 -52
-33 -59 -31 -6 1 -46 -11 -88 -28 -43 -17 -80 -28 -83 -25 -3 3 15 57 40 120
25 63 43 115 40 115 -4 0 -31 -63 -61 -141 l-54 -140 -61 -34 c-59 -33 -88
-39 -50 -10 14 11 15 13 3 9 -14 -4 -12 14 15 127 l31 132 85 35 c47 19 119
52 160 73 80 41 102 47 99 27z m-384 -261 c-13 -54 -25 -100 -28 -103 -2 -2
-7 28 -10 68 -6 72 -6 73 25 105 17 18 33 32 34 30 1 -1 -8 -46 -21 -100z
m199 -93 c9 -3 16 -11 16 -18 0 -8 -51 -130 -85 -203 -1 -2 -30 11 -64 28
l-63 30 6 41 c4 23 9 45 12 50 7 11 135 77 151 78 6 0 18 -3 27 -6z m163 -78
c1 -1 -3 -23 -9 -49 -9 -43 -15 -51 -66 -83 -54 -35 -57 -36 -96 -23 -23 7
-43 14 -45 16 -2 1 16 47 40 101 l44 99 65 -30 c36 -17 66 -31 67 -31z m-380
-53 c-3 -10 -5 -2 -5 17 0 19 2 27 5 18 2 -10 2 -26 0 -35z m393 -17 c0 -3 -4
-8 -10 -11 -5 -3 -10 -1 -10 4 0 6 5 11 10 11 6 0 10 -2 10 -4z m16 -29 c-10
-7 -28 -20 -40 -30 -21 -18 -20 -18 10 -3 l31 15 11 -50 c17 -73 14 -120 -9
-148 -11 -13 -22 -22 -24 -19 -3 3 1 37 10 77 8 40 15 80 14 89 -1 9 -11 -32
-24 -92 -12 -59 -28 -112 -35 -116 -7 -5 -50 -12 -94 -16 -45 -4 -85 -8 -91
-9 -5 0 -43 -7 -83 -14 -40 -7 -76 -10 -79 -7 -9 9 100 120 119 121 9 1 42 20
72 44 31 23 56 39 56 37 0 -3 -13 -28 -30 -56 -39 -66 -62 -110 -56 -110 5 0
104 173 108 190 2 8 9 21 17 30 18 19 113 78 126 79 6 0 2 -6 -9 -12z m-399
-409 c-3 -7 -5 -2 -5 12 0 14 2 19 5 13 2 -7 2 -19 0 -25z m109 -51 c16 -9 26
-16 23 -17 -10 0 -119 51 -119 56 0 5 55 -17 96 -39z m283 -153 c14 -12 -19
-1 -35 12 -18 14 -18 14 6 3 14 -6 27 -13 29 -15z m21 -21 c0 -5 -10 -19 -21
-33 l-21 -25 18 33 c18 32 24 38 24 25z m-122 -118 c-96 -33 -114 -38 -105
-29 9 10 136 52 157 52 8 0 -15 -10 -52 -23z m-118 -40 c0 -3 -37 -23 -82 -46
-97 -48 -97 -42 -1 12 66 37 83 44 83 34z m-78 -161 c11 -3 15 -11 11 -21 -4
-11 -3 -14 6 -9 6 4 46 4 87 1 49 -5 71 -11 63 -16 -11 -7 -11 -9 1 -9 9 0 22
6 29 13 13 13 9 1 -39 -110 -18 -43 -26 -52 -45 -51 -13 1 -22 5 -19 9 7 12
-65 61 -79 53 -6 -4 -9 -4 -5 1 4 4 3 13 -2 20 -7 9 6 17 50 30 33 10 58 20
56 23 -3 2 -28 -4 -56 -13 -28 -9 -57 -15 -64 -12 -7 3 -30 29 -50 57 l-38 53
39 -7 c21 -4 46 -9 55 -12z m-61 -51 c18 -27 37 -51 43 -55 8 -5 7 -8 -1 -8
-10 0 -83 92 -83 105 0 13 12 1 41 -42z m368 -39 c2 -2 -10 -21 -27 -42 -29
-37 -132 -93 -132 -72 0 9 58 142 65 149 3 2 21 -9 40 -24 20 -15 38 -25 41
-22 2 2 -14 17 -36 32 -22 15 -40 32 -40 37 0 5 19 -5 43 -23 23 -18 44 -34
46 -35z m12 -179 c-6 -51 -9 -100 -5 -108 6 -16 -111 -91 -127 -81 -16 10
-188 -59 -194 -77 -5 -15 -115 -94 -115 -83 0 3 12 17 28 31 l27 25 -28 -17
-29 -17 7 30 c3 17 14 76 24 132 l17 101 79 36 c44 19 103 45 130 58 96 44
129 55 135 48 4 -5 13 -36 20 -71 7 -34 15 -61 17 -58 2 2 -1 31 -8 65 -12 55
-11 62 6 81 27 29 29 15 16 -95z m-424 -177 c-6 -38 -14 -68 -19 -68 -15 0 -8
90 8 116 9 13 18 23 19 22 1 -2 -2 -33 -8 -70z m256 -128 c4 -4 -11 -50 -34
-102 l-43 -96 -55 25 c-31 14 -62 27 -68 30 -17 7 -15 39 5 92 14 35 26 49 62
67 42 21 46 21 85 7 22 -9 44 -19 48 -23z m82 -21 c30 -17 55 -34 55 -39 0 -4
-3 -22 -6 -39 -6 -28 -17 -37 -85 -72 -81 -40 -109 -47 -109 -28 0 6 18 51 40
100 22 49 40 94 40 99 0 15 5 13 65 -21z m-291 -31 c-9 -31 -14 -35 -24 -18
-5 9 -5 19 2 27 17 21 30 15 22 -9z m-34 -38 c6 -11 8 -20 6 -20 -3 0 -10 9
-16 20 -6 11 -8 20 -6 20 3 0 10 -9 16 -20z m404 -145 c9 -50 16 -97 16 -105
-1 -23 -74 -72 -112 -75 -18 -1 -66 -6 -107 -10 l-75 -7 15 23 c31 48 94 164
96 177 1 8 3 15 5 17 6 5 143 73 145 71 1 0 9 -42 17 -91z m-224 -87 c-17 -29
-40 -71 -52 -94 -19 -38 -24 -42 -81 -52 -34 -6 -63 -9 -65 -7 -8 7 77 115 91
115 7 1 37 21 67 45 30 24 58 44 63 45 4 0 -6 -24 -23 -52z m-170 -233 c0 -5
-5 -3 -10 5 -5 8 -10 20 -10 25 0 6 5 3 10 -5 5 -8 10 -19 10 -25z m229 -110
c45 -26 81 -49 81 -51 0 -5 -41 16 -107 54 -27 16 -75 39 -108 52 -33 13 -64
27 -70 32 -23 21 129 -44 204 -87z m156 -145 c-10 -11 -23 -20 -28 -20 -6 0 0
11 13 25 27 29 42 25 15 -5z m-35 -34 c0 -2 -8 -10 -17 -17 -16 -13 -17 -12
-4 4 13 16 21 21 21 13z m-245 -114 c-81 -49 -125 -73 -125 -69 0 8 133 87
145 87 6 0 -3 -8 -20 -18z m16 -149 c9 -10 -20 -85 -31 -78 -5 3 -6 -5 -2 -17
7 -30 -7 -19 -68 52 l-52 60 73 -5 c40 -2 75 -8 80 -12z m46 -9 c-3 -3 -12 -4
-19 -1 -8 3 -5 6 6 6 11 1 17 -2 13 -5z m73 -23 l45 -7 -83 -28 c-46 -15 -86
-25 -89 -22 -3 3 0 19 7 36 14 33 30 36 120 21z m59 -53 c-33 -84 -32 -88 3
-15 l33 69 30 -34 c28 -30 28 -31 3 -9 -16 14 -30 22 -33 19 -3 -2 4 -13 15
-23 26 -23 25 -32 -2 -56 -30 -25 -78 -52 -78 -42 0 4 -5 2 -12 -5 -20 -20
-37 -14 -94 30 l-54 43 103 36 c56 20 103 37 104 38 2 0 -7 -23 -18 -51z m79
-57 c-18 -17 -36 -31 -40 -31 -4 0 9 15 30 34 20 19 39 33 40 31 2 -2 -11 -17
-30 -34z m20 -108 c-6 -56 -15 -100 -20 -97 -4 3 -4 -6 1 -19 9 -22 4 -26 -65
-60 l-75 -37 -45 95 c-24 52 -44 99 -44 105 0 9 57 38 90 45 8 2 29 9 45 16
17 7 36 11 43 10 7 -1 27 9 44 23 18 14 33 24 35 23 1 -2 -3 -48 -9 -104z
m-217 -110 c24 -53 45 -100 47 -104 3 -8 -21 -17 -64 -25 -15 -3 -35 -9 -46
-15 -10 -5 -23 -7 -28 -4 -6 3 -10 1 -10 -5 0 -7 -7 -10 -15 -6 -8 3 -15 0
-15 -6 0 -6 -3 -8 -6 -5 -4 4 -24 -7 -45 -24 -39 -31 -39 -31 -39 -7 0 13 5
62 11 108 6 47 12 94 13 104 2 12 25 31 67 52 35 18 69 33 75 34 6 0 30 -44
55 -97z m24 -187 l59 -24 -102 -51 c-56 -28 -106 -51 -111 -51 -17 0 41 128
63 138 29 14 26 15 91 -12z m-181 -17 c-10 -12 -32 -30 -49 -41 -19 -12 -13
-4 15 21 49 44 64 53 34 20z m35 -41 c-11 -29 -23 -55 -25 -57 -3 -3 -15 5
-27 18 l-22 22 40 35 c22 18 43 34 47 34 4 0 -2 -24 -13 -52z m277 12 c24 -17
44 -35 44 -39 0 -28 -51 -76 -109 -102 -67 -31 -65 -32 -47 26 3 11 -3 1 -14
-22 l-20 -41 -75 31 c-41 18 -75 35 -75 39 0 7 212 118 225 118 3 0 -2 -17
-11 -37 -26 -62 -26 -71 1 -18 13 28 25 56 25 63 0 18 6 16 56 -18z m-311 -98
c-3 -3 -6 -3 -8 -1 -1 2 -13 18 -27 34 l-25 30 32 -29 c18 -16 31 -32 28 -34z
m384 -84 c0 -87 -11 -84 -24 6 -5 31 -3 51 5 61 7 8 14 15 16 15 2 0 4 -37 3
-82z m-44 40 c3 -13 13 -60 24 -105 l18 -82 -53 -36 c-55 -36 -74 -42 -74 -25
0 6 -9 6 -22 1 -13 -5 -58 -12 -100 -16 -43 -3 -78 -11 -78 -16 0 -6 -4 -7
-10 -4 -5 3 -10 2 -10 -3 0 -10 -89 -36 -97 -28 -10 9 58 116 69 110 7 -4 8
-2 4 4 -7 11 135 137 149 132 4 -1 11 3 14 8 6 9 140 81 153 82 4 0 10 -10 13
-22z m-227 -440 c29 -11 51 -22 49 -24 -5 -5 -137 43 -146 53 -7 7 27 -3 97
-29z m162 -89 c25 -17 38 -29 29 -26 -20 7 -129 76 -129 83 0 7 48 -20 100
-57z m55 -134 c-28 -24 -54 -44 -59 -45 -5 0 -7 2 -5 4 45 40 102 86 107 86 3
0 -16 -20 -43 -45z m-265 -120 c0 -2 -28 -23 -61 -46 -34 -23 -59 -36 -55 -30
6 10 106 81 113 81 2 0 3 -2 3 -5z m63 -165 c5 -4 4 -18 -3 -30 -6 -12 -10
-24 -7 -26 2 -3 10 9 17 27 13 30 15 31 59 25 102 -14 121 -18 121 -27 0 -4
-9 -33 -21 -64 -15 -40 -29 -60 -50 -70 -28 -15 -31 -14 -83 25 -40 30 -53 46
-49 58 3 9 2 14 -2 9 -5 -4 -26 9 -47 30 -21 20 -38 33 -38 27 0 -6 16 -25 35
-44 19 -19 35 -39 35 -44 0 -6 -27 16 -60 49 -32 32 -56 63 -53 68 6 10 133 0
146 -13z m212 -81 c6 -19 -16 -48 -37 -49 -10 0 -10 1 3 39 13 36 25 40 34 10z
m28 -36 c-26 -17 -31 -35 -8 -27 19 8 19 0 0 -106 -8 -47 -16 -97 -17 -112 -2
-23 -13 -32 -81 -63 -43 -19 -83 -33 -87 -30 -5 3 -10 0 -12 -6 -5 -15 -160
-81 -169 -72 -12 14 -51 192 -44 203 5 8 73 48 117 68 4 2 16 -14 28 -35 12
-21 18 -29 14 -18 -13 42 -8 47 79 82 50 20 87 41 87 49 0 12 96 85 110 83 3
0 -5 -7 -17 -16z m12 -150 c-4 -27 -11 -55 -17 -63 -7 -11 -8 -9 -4 10 2 14 8
42 11 63 10 54 19 46 10 -10z m-420 -182 c16 -65 16 -71 0 -95 -10 -14 -20
-26 -24 -26 -3 0 -5 43 -3 95 2 52 5 95 7 95 1 0 10 -31 20 -69z m255 -78 l25
-14 -25 6 c-24 5 -24 5 3 -10 16 -9 36 -14 44 -11 12 5 13 3 5 -7 -6 -7 -42
-28 -81 -47 -39 -18 -69 -35 -67 -37 2 -3 36 12 76 32 40 20 74 35 75 33 5 -5
-53 -140 -64 -151 -8 -8 -151 39 -151 49 0 2 12 11 28 19 25 15 15 14 -24 -1
-14 -6 -14 -3 1 32 9 22 24 56 32 77 23 57 60 66 123 30z m-120 3 c0 -8 -53
-130 -59 -138 -3 -4 -21 6 -40 21 l-35 28 23 29 c24 30 111 77 111 60z m238
-69 l32 -33 -38 -36 c-37 -36 -72 -58 -91 -58 -10 0 38 121 53 131 5 4 5 12 2
18 -15 23 11 10 42 -22z m-299 -94 c2 -2 -1 -3 -7 -3 -7 0 -26 14 -44 31 l-33
31 40 -28 c22 -16 42 -29 44 -31z m318 9 c-20 -21 -37 -43 -37 -50 0 -6 16 5
36 26 l36 37 -6 -40 c-3 -22 -6 -68 -6 -103 0 -37 -4 -61 -9 -57 -6 3 -8 -8
-5 -27 5 -32 3 -34 -60 -67 -36 -19 -69 -32 -72 -28 -4 4 -27 50 -51 103 -34
75 -41 99 -31 105 7 5 16 9 20 9 29 0 160 73 179 99 13 17 27 31 33 31 5 0 -7
-17 -27 -38z m-193 -184 c61 -139 58 -125 33 -127 -12 -1 -37 -3 -55 -4 -18
-1 -30 -7 -28 -13 2 -6 -6 -10 -17 -9 -12 1 -34 -1 -48 -5 -25 -7 -27 -5 -42
49 l-17 56 63 57 c34 32 67 57 73 58 6 0 23 -28 38 -62z m-155 -155 c1 -6 -13
-16 -30 -22 -37 -13 -60 -15 -43 -3 5 4 18 29 29 57 l18 50 13 -35 c7 -19 13
-40 13 -47z m-6 -88 c36 -45 30 -45 -13 0 -19 19 -30 35 -24 35 5 0 22 -16 37
-35z m273 -132 c29 -21 54 -42 54 -46 0 -7 -82 47 -114 75 -26 22 12 4 60 -29z
m89 -121 c-23 -19 -116 -82 -122 -82 -10 0 110 89 122 89 6 1 6 -2 0 -7z
m-325 -156 c0 -2 -24 -23 -52 -46 l-53 -42 50 46 c49 45 55 50 55 42z m130
-173 c0 -8 -7 -28 -16 -44 -8 -17 -13 -33 -11 -35 3 -3 13 15 23 40 11 26 26
46 34 46 23 0 132 -19 137 -24 2 -2 -1 -23 -8 -45 -8 -28 -23 -48 -43 -61 -37
-22 -89 -43 -83 -32 3 4 -1 13 -9 20 -8 7 -14 9 -14 5 0 -4 -7 3 -16 15 -8 12
-23 22 -32 22 -22 1 -136 105 -129 117 10 15 167 -7 167 -24z m180 -78 c0 -8
-4 -15 -10 -15 -5 0 -7 7 -4 15 4 8 8 15 10 15 2 0 4 -7 4 -15z m26 -52 c0
-21 4 -66 9 -100 7 -58 6 -64 -19 -93 -31 -38 -33 -26 -11 65 8 33 14 69 14
80 0 11 -13 -31 -27 -93 l-27 -113 -80 -35 c-43 -19 -82 -33 -86 -32 -4 2 19
68 50 148 l56 144 55 32 c30 18 57 33 60 33 4 1 6 -16 6 -36z m-191 -180 c-24
-60 -45 -117 -47 -128 -2 -14 -28 -32 -82 -57 -43 -21 -80 -38 -82 -38 -1 0
-3 8 -3 18 0 9 -4 33 -10 52 -11 35 -11 35 -6 -10 2 -25 -1 -52 -6 -60 -8 -11
-9 7 -6 62 3 42 2 92 -3 111 -7 35 -6 37 46 71 29 20 59 34 66 31 7 -2 45 9
83 24 39 16 75 29 82 30 6 1 -7 -45 -32 -106z m-45 -194 c-7 -11 -10 -23 -7
-25 2 -2 10 7 17 21 15 28 20 28 108 -11 47 -21 69 -44 41 -44 -5 0 -7 -5 -4
-10 11 -18 -28 -112 -53 -128 -30 -19 -58 -18 -112 6 l-45 19 80 41 c44 23 77
41 72 42 -4 0 -39 -16 -77 -35 -38 -19 -72 -35 -75 -35 -2 0 7 25 20 57 14 31
24 58 22 60 -6 5 -61 -120 -58 -131 3 -11 -19 -2 -68 29 l-41 25 15 37 c19 45
9 37 86 72 79 37 94 39 79 10z m221 -91 c15 -28 5 -21 -21 15 -15 20 -17 27
-6 18 9 -8 22 -23 27 -33z m-41 -58 c-19 -16 -37 -27 -38 -25 -2 2 4 25 14 50
l17 46 21 -21 21 -21 -35 -29z m70 16 c0 -2 -7 -7 -16 -10 -8 -3 -12 -2 -9 4
6 10 25 14 25 6z m-55 -36 c-22 -24 -8 -26 24 -3 l24 16 -7 -74 c-4 -41 -12
-93 -17 -117 -5 -24 -7 -47 -4 -52 6 -10 -121 -78 -159 -86 -45 -10 -142 -24
-172 -24 -29 0 -31 3 -43 52 l-12 52 58 58 c32 32 61 58 66 58 7 0 51 -90 78
-159 5 -13 12 -22 14 -19 3 3 -11 40 -31 82 -19 43 -34 82 -32 87 2 6 37 24
78 40 41 17 77 35 81 41 3 5 9 9 13 9 18 -3 26 0 26 9 0 5 -8 7 -17 4 -10 -4
-5 5 12 20 36 31 45 33 20 6z m-365 -334 c-16 -16 -22 0 -14 36 l7 33 8 -30
c5 -17 5 -33 -1 -39z m45 -78 c24 -18 44 -37 45 -41 0 -8 -26 9 -80 52 -41 33
-13 24 35 -11z m334 -191 c1 -4 -23 11 -53 35 -30 24 -55 47 -55 51 -1 4 23
-11 53 -35 30 -24 55 -47 55 -51z m1 -71 c0 -4 -102 -70 -140 -91 -36 -19 9
16 69 54 64 41 71 45 71 37z m-340 -169 c0 -2 -17 -19 -37 -38 l-38 -34 34 38
c33 34 41 42 41 34z m1 -123 c9 -11 2 -9 -18 6 -18 13 -33 25 -33 27 0 8 38
-17 51 -33z m189 -29 c143 -20 150 -22 150 -45 0 -36 -13 -51 -72 -81 l-60
-30 -23 21 c-14 13 -21 29 -18 39 4 13 3 13 -5 2 -8 -12 -23 -4 -76 39 -71 58
-85 85 -38 76 15 -3 79 -12 142 -21z m160 -135 c-5 -10 -10 -25 -9 -32 0 -7 4
-4 8 7 5 13 11 -6 19 -65 l11 -85 -42 -37 c-41 -37 -65 -49 -51 -27 3 6 -4 4
-17 -4 -13 -8 -47 -23 -76 -33 -29 -9 -50 -20 -48 -24 2 -3 -5 -7 -16 -7 -10
-1 -19 3 -19 8 0 5 20 60 45 121 25 62 45 118 45 126 0 14 139 83 153 75 4 -2
3 -13 -3 -23z m-170 -82 c0 -4 -20 -59 -45 -120 -25 -62 -45 -118 -45 -125 0
-10 -126 -83 -143 -83 -2 0 -4 12 -4 28 -1 15 -6 61 -12 102 l-11 75 41 40 41
40 -5 -35 -6 -35 11 37 c12 39 55 67 79 52 7 -4 10 -3 6 3 -8 13 17 24 37 17
8 -3 16 -1 20 4 7 11 36 12 36 0z m-10 -270 c0 -10 -74 -187 -86 -206 -2 -2
-29 10 -62 28 l-59 31 7 40 c4 22 9 41 11 43 2 2 35 20 73 40 70 37 116 46
116 24z m146 -95 c-8 -55 -29 -87 -74 -111 -45 -25 -91 -25 -126 1 -16 12 -14
20 26 108 l43 95 68 -30 c67 -30 68 -32 63 -63z m-369 -35 c-3 -8 -6 -5 -6 6
-1 11 2 17 5 13 3 -3 4 -12 1 -19z m385 -20 c-15 -15 -24 -6 -16 16 5 12 10
14 17 7 8 -8 8 -14 -1 -23z m27 -25 c-12 -14 -12 -15 0 -9 10 6 12 4 8 -10 -3
-11 -15 -71 -27 -134 l-21 -115 -77 -32 c-107 -44 -131 -51 -210 -59 l-69 -6
-7 38 c-4 22 -9 46 -12 54 -6 23 92 130 119 130 12 0 53 14 91 30 53 23 72 27
78 17 4 -6 8 -7 9 -2 1 19 8 47 11 50 13 11 105 65 112 65 5 0 2 -8 -5 -17z
m21 -115 c0 -48 -5 -69 -21 -88 l-20 -25 6 40 c11 67 26 135 31 135 2 0 4 -28
4 -62z m-350 -320 c27 -18 50 -36 50 -41 0 -4 -25 9 -55 29 -30 20 -55 38 -55
40 0 9 13 2 60 -28z m315 -187 c-3 -2 -6 -2 -7 0 -2 2 -21 24 -43 49 l-40 45
47 -44 c26 -25 45 -47 43 -50z m-25 -75 c0 -2 -37 -25 -82 -51 -77 -45 -246
-111 -256 -100 -3 2 1 7 9 9 123 39 176 61 239 99 70 43 90 52 90 43z m-301
-288 c25 -15 41 -28 36 -28 -10 0 -105 60 -105 67 0 5 3 3 69 -39z m294 -49
c20 -6 37 -12 37 -15 0 -3 -9 -19 -21 -35 -26 -36 -106 -74 -125 -58 -11 9
-11 16 2 41 9 16 13 32 10 36 -3 3 -6 1 -6 -4 0 -5 -4 -15 -9 -23 -7 -11 -21
-4 -66 33 l-58 47 99 -7 c55 -3 116 -10 137 -15z m58 -173 c-6 -33 -8 -77 -5
-96 5 -34 3 -36 -51 -68 -30 -18 -59 -31 -65 -27 -5 3 -44 -8 -87 -25 -91 -35
-94 -35 -87 -12 2 9 -4 0 -13 -21 -18 -36 -47 -62 -108 -93 l-30 -16 30 27
c21 18 23 23 9 16 -21 -10 -22 -7 -34 68 -13 82 -8 103 26 132 15 12 16 12 11
-6 -12 -42 -30 -146 -25 -150 3 -3 13 42 24 99 l18 104 165 74 c90 40 168 74
172 76 4 2 14 -25 23 -60 l16 -63 -6 52 c-4 33 -1 59 7 75 l14 23 3 -24 c2
-13 -1 -51 -7 -85z m-211 -292 c22 -9 40 -18 40 -20 0 -4 -81 -187 -85 -192
-3 -3 -124 55 -134 64 -2 1 3 26 10 54 12 47 18 55 64 81 59 34 54 33 105 13z
m123 -39 c58 -29 58 -30 52 -65 -9 -47 -14 -52 -98 -94 -68 -35 -107 -40 -107
-14 0 6 18 50 40 99 22 49 40 94 40 100 0 6 3 9 8 7 4 -2 33 -17 65 -33z
m-301 -41 c-7 -12 -11 -13 -17 -4 -4 7 -2 16 6 21 18 11 23 4 11 -17z m375
-46 c-2 -13 -4 -5 -4 17 -1 22 1 32 4 23 2 -10 2 -28 0 -40z m-5 -69 c-3 -20
-1 -29 5 -26 6 4 13 -23 17 -71 l7 -77 -32 -29 c-18 -16 -35 -24 -36 -19 -2 6
3 39 12 73 9 34 14 64 12 67 -7 7 -39 -135 -33 -145 3 -5 0 -14 -7 -19 -14
-12 -162 -72 -192 -79 -107 -24 -170 -30 -161 -16 3 5 0 27 -6 50 -10 40 -9
43 33 101 24 33 49 61 56 61 6 0 46 14 88 31 42 17 78 29 80 27 2 -2 -17 -52
-41 -113 -24 -60 -44 -114 -43 -120 0 -5 26 54 57 133 l57 143 55 28 c72 37
77 37 72 0z m-257 -446 c11 -7 16 -13 11 -13 -11 0 -126 70 -126 77 0 5 76
-37 115 -64z m80 -33 c13 -6 15 -9 5 -9 -8 0 -22 4 -30 9 -18 12 -2 12 25 0z
m85 -30 c13 -9 13 -10 0 -10 -8 0 -22 5 -30 10 -13 9 -13 10 0 10 8 0 22 -5
30 -10z m51 -37 c13 -16 12 -17 -3 -4 -10 7 -18 15 -18 17 0 8 8 3 21 -13z
m37 -58 c-3 -3 -9 2 -12 12 -6 14 -5 15 5 6 7 -7 10 -15 7 -18z m-240 -180
c-2 -3 -38 -16 -78 -30 -40 -14 -70 -22 -66 -17 4 4 35 17 69 29 63 22 84 27
75 18z m-88 -170 c27 -13 52 -30 55 -36 7 -11 -33 8 -89 42 -44 27 -24 24 34
-6z m258 -60 c72 -5 79 -12 45 -47 -29 -31 -81 -63 -90 -55 -2 3 3 22 11 42
21 49 20 58 -2 17 l-18 -33 -47 37 c-26 20 -47 41 -47 46 0 6 19 7 48 3 26 -3
71 -8 100 -10z m73 -58 c-19 -18 -30 -25 -26 -17 13 25 48 60 54 55 3 -3 -10
-20 -28 -38z m19 -98 c-6 -52 -12 -107 -13 -122 -2 -24 -12 -34 -62 -63 -33
-18 -64 -34 -68 -34 -7 0 -97 184 -97 200 0 7 160 80 174 80 3 0 6 -7 6 -15 0
-10 12 -2 31 20 18 20 34 34 36 32 2 -3 -1 -47 -7 -98z m-212 -110 c23 -50 40
-94 37 -98 -2 -4 -37 -20 -77 -36 -40 -15 -86 -38 -103 -49 -41 -29 -77 -47
-83 -42 -5 5 28 239 35 246 5 5 135 68 144 69 3 1 25 -40 47 -90z m-221 -91
c-3 -7 -5 -2 -5 12 0 14 2 19 5 13 2 -7 2 -19 0 -25z m233 -105 c57 -22 62
-29 43 -72 -25 -61 -25 -69 2 -16 13 28 25 56 25 63 0 6 2 12 5 12 8 0 105
-61 105 -66 0 -3 -7 -20 -15 -40 -12 -29 -27 -41 -88 -69 -50 -23 -83 -33
-102 -29 -28 5 -145 61 -145 69 0 3 44 27 98 54 53 28 94 50 89 50 -4 1 -44
-17 -88 -40 -45 -22 -83 -38 -86 -36 -2 3 4 29 14 57 14 40 25 56 48 66 39 17
41 17 95 -3z m-151 -6 c-2 -2 -23 -18 -45 -35 -50 -38 -68 -42 -30 -7 15 14
31 25 35 25 5 0 14 7 21 15 7 9 15 13 18 10 3 -3 3 -6 1 -8z m-5 -66 c-18 -46
-24 -49 -41 -22 -11 17 -8 23 19 46 17 14 32 24 35 22 2 -3 -4 -23 -13 -46z
m353 -153 c-2 -13 -4 -3 -4 22 0 25 2 35 4 23 2 -13 2 -33 0 -45z m-18 0 c6
-29 15 -75 20 -101 l9 -48 -47 -35 c-25 -18 -52 -31 -59 -29 -7 3 -51 -11 -97
-29 -47 -19 -85 -31 -85 -27 0 4 12 36 26 72 53 130 65 164 56 154 -12 -12
-102 -234 -102 -250 0 -7 -23 -17 -51 -23 -66 -16 -92 -15 -86 1 4 10 49 158
63 208 4 14 124 73 164 81 8 2 19 7 25 11 17 14 129 66 142 67 6 0 16 -24 22
-52z m-398 -223 c-16 -51 -19 -55 -20 -28 -1 26 28 97 36 89 1 -1 -6 -29 -16
-61z m187 -210 c-5 -5 -138 64 -138 71 0 2 32 -12 71 -32 39 -19 69 -37 67
-39z m161 -61 c10 -9 -17 -3 -69 17 -30 11 -59 25 -65 30 -5 6 22 -2 60 -16
39 -15 72 -29 74 -31z m-220 -269 c-3 -2 -36 -16 -75 -31 -78 -29 -79 -21 -1
12 48 21 87 30 76 19z m-122 -122 c-3 -10 -5 -4 -5 12 0 17 2 24 5 18 2 -7 2
-21 0 -30z m88 -47 c58 -26 78 -46 22 -22 -44 18 -94 45 -85 46 4 0 32 -11 63
-24z m213 -49 c25 -1 27 -10 12 -53 -7 -19 -17 -30 -29 -30 -11 0 -18 3 -15 7
7 11 -47 50 -59 42 -5 -3 -7 -1 -4 4 8 12 -9 29 -38 36 -11 3 9 3 45 1 36 -3
75 -6 88 -7z m76 -16 c16 -6 14 -11 -23 -40 -45 -36 -48 -35 -25 15 17 36 18
37 48 25z m15 -48 c-25 -27 -28 -32 -9 -20 13 10 27 17 31 17 3 0 -2 -53 -12
-117 -10 -65 -19 -121 -19 -125 0 -8 -133 -78 -148 -78 -7 0 -59 104 -89 177
-3 7 29 24 81 44 47 18 86 36 86 41 0 5 5 6 11 3 6 -4 9 -1 7 8 -2 8 17 31 42
51 57 46 63 45 19 -1z m-216 -235 l45 -96 -83 -36 c-98 -42 -105 -43 -106 -13
0 21 -1 21 -9 2 -4 -11 -19 -30 -32 -42 l-23 -22 8 97 c5 53 10 110 10 126 2
24 11 33 67 61 36 18 68 30 72 27 4 -4 27 -51 51 -104z m234 60 c-3 -8 -6 -5
-6 6 -1 11 2 17 5 13 3 -3 4 -12 1 -19z m-176 -232 l63 -24 -102 -51 c-56 -28
-106 -51 -111 -51 -5 0 4 34 21 75 35 86 36 86 129 51z m-127 -18 c-3 -13 -17
-47 -31 -75 l-24 -53 -35 26 c-19 15 -32 29 -29 32 3 3 16 -5 30 -18 14 -13
27 -21 30 -18 3 2 -6 15 -20 28 -29 27 -21 50 28 80 43 27 60 26 51 -2z m-74
9 c0 -2 -17 -19 -37 -38 l-38 -34 34 38 c33 34 41 42 41 34z m335 -43 l40 -36
-47 33 c-27 18 -48 34 -48 36 0 10 20 -2 55 -33z m-13 -17 c35 -26 35 -37 1
-68 -32 -28 -103 -63 -103 -50 0 5 11 34 25 65 14 31 25 62 25 69 -1 10 -27
-47 -61 -131 -8 -22 -10 -22 -46 -7 -20 9 -43 13 -50 10 -8 -2 -11 -1 -8 4 7
13 -28 23 -51 15 -16 -5 -16 -4 -4 5 8 6 11 11 5 11 -5 1 37 25 95 55 111 57
123 58 172 22z m63 -134 c-3 -38 -7 -93 -9 -123 -4 -55 -4 -55 -57 -87 -30
-18 -59 -32 -65 -33 -6 0 -21 22 -34 50 -13 27 -25 48 -27 46 -3 -2 5 -22 16
-45 24 -47 30 -42 -87 -86 -41 -15 -76 -33 -79 -41 -5 -13 -62 -34 -95 -34
-14 0 -15 5 -6 36 5 20 7 48 3 63 -3 17 -2 21 3 13 7 -10 13 7 22 52 7 36 17
69 24 74 6 5 41 23 79 40 l67 31 25 -47 c13 -26 24 -43 25 -39 0 4 -9 26 -21
48 -11 23 -19 42 -17 43 9 7 158 66 166 66 6 0 18 -34 28 -76 10 -42 20 -72
22 -66 2 6 -4 36 -12 68 -14 55 -14 59 5 86 11 15 23 28 25 28 3 0 3 -30 -1
-67z m-235 7 c8 -5 11 -10 5 -10 -5 0 -17 5 -25 10 -8 5 -10 10 -5 10 6 0 17
-5 25 -10z m-130 -379 c0 -5 -9 -7 -20 -4 -11 3 -20 7 -20 9 0 2 9 4 20 4 11
0 20 -4 20 -9z m140 -76 c0 -3 -27 8 -60 25 -33 17 -60 33 -60 35 0 3 27 -8
60 -25 33 -17 60 -33 60 -35z m160 -66 c11 -7 8 -8 -10 -3 -37 10 -110 42
-110 48 0 6 96 -30 120 -45z m37 -66 c-3 -10 -5 -4 -5 12 0 17 2 24 5 18 2 -7
2 -21 0 -30z M431 18944 c-7 -8 -11 -17 -9 -20 3 -2 13 5 23 16 10 11 14 20 9
20 -5 -1 -15 -8 -23 -16z M290 17510 c8 -5 20 -10 25 -10 6 0 3 5 -5 10 -8 5
-19 10 -25 10 -5 0 -3 -5 5 -10z M350 17485 c14 -8 32 -14 40 -14 8 0 0 6 -19
14 -42 19 -54 19 -21 0z M471 17230 c0 -8 4 -24 9 -35 5 -13 9 -14 9 -5 0 8
-4 24 -9 35 -5 13 -9 14 -9 5z M307 16298 c-20 -45 -35 -83 -33 -85 1 -2 20
33 40 78 21 44 36 83 34 85 -2 2 -21 -33 -41 -78z M481 16104 c-7 -30 -11 -57
-8 -60 2 -2 9 21 16 52 7 30 11 57 8 60 -2 2 -9 -21 -16 -52z M286 15825 c-9
-26 -7 -32 5 -12 6 10 9 21 6 23 -2 3 -7 -2 -11 -11z M355 14653 c-29 -69 -29
-74 0 -20 14 27 25 53 23 58 -2 5 -12 -12 -23 -38z M312 14555 c-7 -14 -12
-31 -12 -38 1 -7 7 3 16 22 17 39 13 54 -4 16z M196 13005 c-9 -26 -7 -32 5
-12 6 10 9 21 6 23 -2 3 -7 -2 -11 -11z M491 12294 c0 -11 3 -14 6 -6 3 7 2
16 -1 19 -3 4 -6 -2 -5 -13z M451 12134 c0 -11 3 -14 6 -6 3 7 2 16 -1 19 -3
4 -6 -2 -5 -13z M441 12094 c0 -11 3 -14 6 -6 3 7 2 16 -1 19 -3 4 -6 -2 -5
-13z M320 10565 c0 -5 5 -17 10 -25 5 -8 10 -10 10 -5 0 6 -5 17 -10 25 -5 8
-10 11 -10 5z M351 10495 c0 -5 8 -26 19 -45 11 -19 19 -30 19 -25 0 6 -8 26
-19 45 -11 19 -19 31 -19 25z M160 10421 c0 -6 4 -13 10 -16 6 -3 7 1 4 9 -7
18 -14 21 -14 7z M261 9355 c0 -5 11 -30 24 -55 13 -25 24 -40 24 -35 0 6 -11
30 -24 55 -13 25 -24 41 -24 35z M300 9180 c8 -5 20 -10 25 -10 6 0 3 5 -5 10
-8 5 -19 10 -25 10 -5 0 -3 -5 5 -10z M471 8940 c0 -8 4 -24 9 -35 5 -13 9
-14 9 -5 0 8 -4 24 -9 35 -5 13 -9 14 -9 5z M491 8864 c0 -11 3 -14 6 -6 3 7
2 16 -1 19 -3 4 -6 -2 -5 -13z M332 6305 c-17 -37 -14 -45 4 -12 9 16 14 31
11 33 -2 2 -9 -7 -15 -21z M481 6144 c0 -11 3 -14 6 -6 3 7 2 16 -1 19 -3 4
-6 -2 -5 -13z M461 6074 c0 -11 3 -14 6 -6 3 7 2 16 -1 19 -3 4 -6 -2 -5 -13z
M446 6024 c-4 -14 -5 -28 -3 -31 3 -2 8 8 11 23 4 14 5 28 3 31 -3 2 -8 -8
-11 -23z M131 5994 c0 -11 3 -14 6 -6 3 7 2 16 -1 19 -3 4 -6 -2 -5 -13z M121
5954 c0 -11 3 -14 6 -6 3 7 2 16 -1 19 -3 4 -6 -2 -5 -13z M111 5914 c0 -11 3
-14 6 -6 3 7 2 16 -1 19 -3 4 -6 -2 -5 -13z M101 5874 c0 -11 3 -14 6 -6 3 7
2 16 -1 19 -3 4 -6 -2 -5 -13z M366 5555 c-9 -26 -7 -32 5 -12 6 10 9 21 6 23
-2 3 -7 -2 -11 -11z M346 5505 c-9 -26 -7 -32 5 -12 6 10 9 21 6 23 -2 3 -7
-2 -11 -11z M326 5455 c-9 -26 -7 -32 5 -12 6 10 9 21 6 23 -2 3 -7 -2 -11
-11z M301 4463 c-1 -6 -4 -20 -7 -30 -5 -17 -5 -17 6 0 6 10 9 23 6 30 -3 9
-5 9 -5 0z M276 4395 c-9 -26 -7 -32 5 -12 6 10 9 21 6 23 -2 3 -7 -2 -11 -11z
M256 4345 c-9 -26 -7 -32 5 -12 6 10 9 21 6 23 -2 3 -7 -2 -11 -11z M236 4295
c-9 -26 -7 -32 5 -12 6 10 9 21 6 23 -2 3 -7 -2 -11 -11z M491 3934 c0 -11 3
-14 6 -6 3 7 2 16 -1 19 -3 4 -6 -2 -5 -13z M471 2824 c0 -11 3 -14 6 -6 3 7
2 16 -1 19 -3 4 -6 -2 -5 -13z M481 2784 c0 -11 3 -14 6 -6 3 7 2 16 -1 19 -3
4 -6 -2 -5 -13z M491 2744 c0 -11 3 -14 6 -6 3 7 2 16 -1 19 -3 4 -6 -2 -5
-13z M322 2345 c-17 -37 -14 -45 4 -12 9 16 14 31 11 33 -2 2 -9 -7 -15 -21z
M101 974 c0 -11 3 -14 6 -6 3 7 2 16 -1 19 -3 4 -6 -2 -5 -13z M111 940 c0 -8
4 -24 9 -35 5 -13 9 -14 9 -5 0 8 -4 24 -9 35 -5 13 -9 14 -9 5z M157 370 c3
-11 9 -22 13 -25 5 -3 6 4 3 15 -3 11 -9 22 -13 25 -5 3 -6 -4 -3 -15z"/>
</g>
</svg>
