<?xml version="1.0" standalone="no"?>
<!DOCTYPE svg PUBLIC "-//W3C//DTD SVG 20010904//EN"
 "http://www.w3.org/TR/2001/REC-SVG-20010904/DTD/svg10.dtd">
<svg version="1.0" xmlns="http://www.w3.org/2000/svg"
 width="2000.000000pt" height="60.000000pt" viewBox="0 0 2000.000000 60.000000"
 preserveAspectRatio="xMidYMid meet">
<metadata>
Created by potrace 1.16, written by Peter Selinger 2001-2019
</metadata>
<g transform="translate(0.000000,60.000000) scale(0.100000,-0.100000)"
fill="#ffffff" stroke="none">
<path d="M14900 471 c0 -13 -10 -21 -32 -25 -61 -13 -701 -35 -1003 -36 -345
0 -922 -25 -1092 -46 l-53 -6 0 -45 0 -46 -37 5 c-21 3 -83 25 -138 48 -91 39
-108 43 -185 44 -77 0 -94 -3 -175 -38 -68 -29 -108 -39 -166 -43 -69 -5 -84
-2 -185 33 -99 35 -118 39 -204 38 -77 -1 -109 -6 -170 -28 -41 -16 -104 -31
-140 -35 l-64 -7 -171 82 -170 82 -3 -30 -3 -29 -62 5 c-144 13 -420 17 -1232
18 -473 0 -868 0 -877 -1 -14 -1 -18 -10 -18 -46 l0 -44 -277 -3 c-153 -2
-354 -1 -448 2 -298 8 -487 5 -595 -8 l-104 -13 -116 42 c-63 23 -142 52 -175
64 -102 39 -105 39 -105 16 l0 -21 -737 0 c-672 1 -852 4 -1290 26 l-143 7 -6
-30 c-5 -28 -11 -32 -53 -38 -25 -3 -86 -25 -136 -48 -80 -37 -98 -42 -165
-42 -68 0 -84 4 -163 42 -158 76 -242 75 -403 -4 -85 -41 -107 -48 -159 -48
-61 1 -85 9 -219 81 -28 15 -70 29 -95 32 -26 3 -48 8 -51 12 -7 11 -368 20
-372 10 -4 -12 -401 -37 -793 -50 -181 -6 -406 -15 -500 -20 -317 -18 -630
-40 -710 -50 -44 -6 -101 -10 -127 -10 -34 0 -50 -5 -56 -17 -9 -15 -15 -15
-49 -5 -22 7 -57 25 -79 42 -145 112 -209 130 -316 90 -29 -11 -75 -38 -103
-61 -55 -46 -118 -78 -152 -79 -17 0 -23 -6 -23 -24 0 -22 2 -23 45 -15 56 11
73 19 159 82 115 85 192 91 292 21 117 -82 143 -96 184 -101 23 -3 44 -12 47
-19 5 -14 -1 -15 209 11 350 44 398 46 1144 57 410 6 772 11 805 10 61 -1 363
51 401 70 29 14 81 -2 163 -50 91 -55 130 -65 217 -60 62 4 87 12 170 54 92
46 103 49 174 49 68 0 83 -4 160 -42 151 -74 244 -75 389 -6 41 20 93 38 117
41 44 5 44 4 44 -27 0 -17 4 -31 8 -31 5 0 127 -9 273 -20 308 -23 695 -37
1214 -45 204 -3 443 -8 533 -11 152 -6 162 -8 162 -26 0 -16 4 -18 23 -12 12
4 92 29 177 56 102 33 184 53 240 58 47 4 136 14 199 21 91 10 141 10 247 0
95 -9 243 -10 528 -5 l396 7 0 -36 c0 -72 -89 -66 943 -68 513 -1 1000 -4
1082 -8 146 -6 150 -7 153 -29 4 -28 22 -28 97 4 33 14 87 34 120 46 33 11 73
27 90 35 17 9 61 17 105 18 53 2 101 12 164 34 127 44 196 43 335 -6 92 -32
117 -37 191 -37 74 1 97 6 180 39 83 34 106 39 180 39 79 1 92 -2 181 -41 63
-28 111 -43 138 -43 l41 0 0 -44 c0 -25 4 -48 10 -51 5 -3 72 -1 147 5 275 22
467 30 973 40 466 9 700 18 966 36 87 6 91 6 97 -15 5 -20 8 -19 104 25 226
106 277 125 310 119 18 -3 72 -33 120 -65 147 -101 239 -103 373 -9 88 62 127
79 182 79 52 0 109 -25 180 -78 70 -53 119 -72 183 -72 66 0 102 15 190 80 76
56 103 70 141 70 21 0 24 -5 24 -34 l0 -33 163 -17 c280 -29 388 -35 897 -45
719 -16 1072 -29 1110 -42 47 -17 346 -5 430 16 79 21 87 25 145 75 122 106
211 110 331 18 106 -81 204 -114 204 -69 0 13 -12 22 -46 31 -25 7 -75 35
-112 63 -89 66 -136 87 -198 87 -64 0 -116 -21 -176 -71 -58 -48 -126 -89
-151 -89 -10 0 -39 6 -65 14 -153 46 -316 86 -333 81 -10 -4 -106 1 -212 9
-308 25 -316 26 -667 36 -382 12 -761 34 -942 55 -249 30 -345 38 -361 32 -11
-4 -17 -18 -17 -37 0 -25 -4 -30 -24 -30 -37 0 -106 -33 -155 -74 -127 -107
-218 -107 -356 -1 -67 50 -111 67 -181 67 -68 1 -132 -23 -192 -70 -122 -96
-222 -96 -343 -1 -48 38 -117 69 -153 69 -17 0 -71 11 -120 25 -185 50 -281
75 -288 75 -5 0 -8 -8 -8 -19z m102 -21 c34 -11 70 -20 78 -20 30 0 161 -43
153 -50 -11 -11 -293 -140 -304 -140 -5 0 -9 7 -9 15 0 11 -10 15 -37 13 -37
-1 -37 -1 -5 -5 17 -2 32 -8 32 -12 0 -22 -264 -38 -835 -50 -253 -6 -539 -12
-635 -14 -119 -3 -148 -2 -90 3 69 6 59 7 -49 4 -246 -7 -245 -7 -156 -15 64
-5 53 -6 -55 -4 -74 1 -121 -1 -105 -5 17 -4 -15 -5 -69 -2 -58 3 -97 1 -94
-4 4 -5 -13 -7 -38 -5 l-44 3 0 94 c0 83 2 94 18 94 9 0 103 7 207 15 214 17
675 31 1240 40 209 3 439 10 510 15 72 5 145 9 163 10 25 0 32 4 32 20 0 25
12 25 92 0z m1855 0 c43 -6 107 -15 143 -20 130 -19 623 -50 950 -60 365 -11
608 -24 825 -45 77 -7 144 -9 148 -5 7 6 186 -38 283 -70 17 -5 38 -10 47 -10
20 0 24 -39 5 -44 -7 -3 -88 -7 -180 -10 -162 -5 -168 -5 -168 14 0 16 7 20
33 21 30 2 30 2 5 6 -16 2 -28 9 -28 14 0 5 -21 8 -47 7 -44 -1 -45 -2 -10 -5
29 -3 37 -9 37 -24 0 -22 5 -22 -190 -9 -80 6 -424 15 -765 20 -581 10 -706
15 -1076 51 l-127 12 -1 84 c-1 96 -11 90 116 73z m-11737 -51 c107 -6 512
-12 900 -13 945 -4 883 -3 876 -21 -3 -8 -1 -15 4 -15 6 0 10 7 10 15 0 8 4
15 8 15 10 0 245 -83 292 -103 l35 -15 -25 -10 c-35 -13 -286 -92 -294 -92 -3
0 -6 9 -6 20 0 19 -7 20 -102 20 -576 2 -1434 26 -1758 51 -74 5 -177 13 -227
16 l-93 6 0 48 0 49 73 2 72 2 -72 3 c-66 4 -73 6 -73 25 0 20 3 21 93 15 50
-4 180 -12 287 -18z m1895 -14 c33 -13 76 -28 95 -34 72 -23 155 -60 159 -72
2 -7 -2 -10 -10 -7 -8 3 -89 32 -181 64 -102 36 -168 64 -168 72 0 15 12 12
105 -23z m4082 -41 l158 -76 -65 -29 c-35 -16 -75 -32 -87 -35 -13 -4 -58 -21
-101 -40 l-77 -34 -3 24 c-3 22 -8 24 -100 30 -73 6 -1334 16 -2019 16 l-63 0
0 90 0 90 328 2 327 3 -325 6 c-179 3 31 4 465 2 435 -2 926 -6 1093 -9 l302
-6 0 21 c0 12 2 21 4 21 3 0 76 -34 163 -76z m-7849 40 c13 -4 22 -14 22 -25
0 -16 -8 -19 -41 -19 -22 0 -38 -4 -35 -8 10 -17 -227 -53 -374 -57 -460 -10
-912 -14 -890 -7 14 5 133 12 265 16 260 7 678 32 710 43 11 3 70 9 130 13
l110 6 -107 2 c-101 2 -108 3 -108 22 0 19 7 20 148 20 81 0 157 -3 170 -6z
m-338 -29 c0 -20 -5 -25 -23 -25 -13 0 -120 -7 -238 -15 -118 -8 -362 -19
-544 -25 -181 -5 -365 -13 -407 -16 -62 -5 -78 -3 -78 7 0 10 -3 11 -8 3 -4
-7 -73 -17 -175 -25 -144 -10 -170 -10 -178 2 -7 12 -9 11 -9 -1 0 -13 -26
-18 -132 -29 -164 -17 -167 -17 -253 -30 -105 -16 -125 -14 -125 8 0 24 12 27
114 36 61 5 81 4 88 -7 8 -10 9 -10 5 3 -4 13 10 18 89 28 195 24 600 50 919
61 339 10 658 26 825 39 52 5 103 9 113 10 12 1 17 -6 17 -24z m12360 14 c0
-5 -33 -25 -72 -43 -40 -19 -117 -54 -170 -79 -62 -29 -98 -41 -98 -33 0 10
307 163 333 165 4 1 7 -4 7 -10z m-11840 -44 c25 -14 69 -37 98 -51 29 -14 51
-28 48 -31 -6 -7 -90 32 -128 59 -18 12 -55 30 -82 40 -42 15 -45 17 -16 13
19 -3 55 -16 80 -30z m-3186 10 c-10 -8 -23 -15 -28 -15 -6 0 -1 7 10 15 10 8
23 15 28 15 6 0 1 -7 -10 -15z m3671 -5 c-27 -10 -81 -34 -118 -54 -38 -20
-76 -36 -85 -36 -17 0 145 87 188 100 51 16 63 8 15 -10z m289 -29 c45 -21 88
-41 96 -44 10 -4 8 -6 -6 -6 -11 -1 -49 13 -84 31 -35 17 -84 40 -109 50 -41
17 -43 18 -12 13 19 -3 70 -23 115 -44z m8111 39 c3 -5 -3 -10 -15 -10 -11 0
-60 -15 -108 -33 -102 -40 -146 -52 -138 -38 4 5 19 12 34 16 15 3 68 21 117
40 101 39 102 39 110 25z m3131 -25 c27 -19 69 -46 94 -60 25 -15 37 -24 27
-21 -10 3 -22 6 -26 6 -3 0 -42 25 -86 55 -43 30 -74 55 -68 55 6 0 33 -16 59
-35z m408 0 c-27 -19 -62 -42 -79 -50 l-30 -16 25 20 c39 33 112 81 123 81 5
0 -13 -16 -39 -35z m332 -12 c35 -26 64 -48 64 -50 0 -7 -57 29 -98 62 -63 51
-40 43 34 -12z m-11630 -9 c-49 -24 -101 -44 -115 -43 -19 0 -9 7 34 23 33 13
78 33 100 44 22 12 47 21 55 21 8 0 -25 -20 -74 -45z m7019 36 c-3 -5 -13 -10
-20 -10 -8 0 -56 -14 -106 -30 -51 -17 -99 -29 -108 -27 -10 2 -5 7 14 11 17
5 71 21 120 37 101 32 109 33 100 19z m249 -31 c44 -16 96 -29 115 -29 27 -1
32 -3 20 -10 -17 -10 -47 -3 -181 40 -43 14 -78 29 -78 33 0 10 15 5 124 -34z
m703 10 c37 -17 79 -35 92 -40 13 -5 21 -12 18 -15 -3 -3 -41 10 -84 28 -43
19 -89 40 -103 46 -16 7 -19 11 -8 11 9 1 47 -13 85 -30z m-4932 1 c4 -6 -8
-10 -28 -10 -18 0 -58 -4 -88 -9 -77 -13 -164 -20 -148 -11 8 4 41 11 74 14
49 6 143 19 177 25 4 0 10 -3 13 -9z m305 -10 c29 -6 3 -7 -75 -3 -66 3 -138
9 -160 14 -52 11 173 0 235 -11z m8670 15 c0 -2 -10 -10 -22 -16 -21 -11 -22
-11 -9 4 13 16 31 23 31 12z m-8256 -14 c7 -10 -231 -24 -247 -14 -7 4 31 11
83 14 52 3 109 6 127 7 17 1 34 -2 37 -7z m356 0 c0 -12 -229 -13 -267 -1 -18
5 22 9 120 9 83 1 147 -3 147 -8z m-8515 -31 c-3 -5 -16 -15 -28 -21 -21 -10
-21 -9 2 10 25 23 36 27 26 11z m1742 -6 c-3 -3 -12 -4 -19 -1 -8 3 -5 6 6 6
11 1 17 -2 13 -5z m-1080 -10 c-3 -3 -12 -4 -19 -1 -8 3 -5 6 6 6 11 1 17 -2
13 -5z m11896 -11 c-7 -2 -19 -2 -25 0 -7 3 -2 5 12 5 14 0 19 -2 13 -5z
M14778 253 c12 -2 32 -2 45 0 12 2 2 4 -23 4 -25 0 -35 -2 -22 -4z M14628 243
c12 -2 32 -2 45 0 12 2 2 4 -23 4 -25 0 -35 -2 -22 -4z M14457 233 c18 -2 50
-2 70 0 21 2 7 4 -32 4 -38 0 -55 -2 -38 -4z M14203 223 c26 -2 68 -2 95 0 26
2 4 3 -48 3 -52 0 -74 -1 -47 -3z M14368 223 c6 -2 18 -2 25 0 6 3 1 5 -13 5
-14 0 -19 -2 -12 -5z M13858 213 c46 -2 118 -2 160 0 42 1 5 3 -83 3 -88 0
-123 -2 -77 -3z M13498 203 c28 -2 76 -2 105 0 28 2 5 3 -53 3 -58 0 -81 -1
-52 -3z M16808 323 c12 -2 32 -2 45 0 12 2 2 4 -23 4 -25 0 -35 -2 -22 -4z
M16913 313 c15 -2 37 -2 50 0 12 2 0 4 -28 4 -27 0 -38 -2 -22 -4z M17008 303
c12 -2 32 -2 45 0 12 2 2 4 -23 4 -25 0 -35 -2 -22 -4z M17137 293 c18 -2 50
-2 70 0 21 2 7 4 -32 4 -38 0 -55 -2 -38 -4z M17313 283 c26 -2 67 -2 90 0 23
2 2 3 -48 3 -49 0 -68 -1 -42 -3z M17693 273 c114 -2 300 -2 415 0 114 1 20 2
-208 2 -228 0 -322 -1 -207 -2z M18478 263 c34 -2 88 -2 120 0 31 2 3 3 -63 3
-66 0 -92 -1 -57 -3z M18698 253 c23 -2 61 -2 85 0 23 2 4 4 -43 4 -47 0 -66
-2 -42 -4z M19038 233 c34 -2 88 -2 120 0 31 2 3 3 -63 3 -66 0 -92 -1 -57 -3z
M4943 363 c20 -2 54 -2 75 0 20 2 3 4 -38 4 -41 0 -58 -2 -37 -4z M5198 353
c29 -2 74 -2 100 0 26 2 2 3 -53 3 -55 0 -76 -1 -47 -3z M6658 353 c12 -2 32
-2 45 0 12 2 2 4 -23 4 -25 0 -35 -2 -22 -4z M5678 343 c83 -2 221 -2 305 0
83 1 15 3 -153 3 -168 0 -236 -2 -152 -3z M9473 383 c15 -2 39 -2 55 0 15 2 2
4 -28 4 -30 0 -43 -2 -27 -4z M9668 383 c7 -3 16 -2 19 1 4 3 -2 6 -13 5 -11
0 -14 -3 -6 -6z"/>
</g>
</svg>
