<?xml version="1.0" standalone="no"?>
<!DOCTYPE svg PUBLIC "-//W3C//DTD SVG 20010904//EN"
 "http://www.w3.org/TR/2001/REC-SVG-20010904/DTD/svg10.dtd">
<svg version="1.0" xmlns="http://www.w3.org/2000/svg"
 width="60.000000pt" height="2000.000000pt" viewBox="0 0 60.000000 2000.000000"
 preserveAspectRatio="xMidYMid meet">
<metadata>
Created by potrace 1.16, written by Peter Selinger 2001-2019
</metadata>
<g transform="translate(0.000000,2000.000000) scale(0.100000,-0.100000)"
fill="#7f7f7f" stroke="none">
<path d="M350 19954 c-7 -25 -35 -75 -63 -112 -66 -89 -87 -136 -87 -198 0
-64 21 -116 71 -176 48 -58 89 -126 89 -151 0 -10 -6 -39 -14 -65 -46 -153
-86 -316 -81 -333 4 -10 -1 -106 -9 -212 -25 -308 -26 -316 -36 -667 -12 -382
-34 -761 -55 -942 -30 -249 -38 -345 -32 -361 4 -11 18 -17 37 -17 25 0 30 -4
30 -24 0 -37 33 -106 74 -155 107 -127 107 -218 1 -356 -50 -67 -67 -111 -67
-181 -1 -68 23 -132 70 -192 96 -122 96 -222 1 -343 -38 -48 -69 -117 -69
-153 0 -17 -11 -71 -25 -120 -50 -185 -75 -281 -75 -288 0 -5 8 -8 19 -8 13 0
21 -10 25 -32 13 -61 35 -701 36 -1003 0 -345 25 -922 46 -1092 l6 -53 45 0
46 0 -5 -37 c-3 -21 -25 -83 -48 -138 -39 -91 -43 -108 -44 -185 0 -77 3 -94
38 -175 29 -68 39 -108 43 -166 5 -69 2 -84 -33 -185 -35 -99 -39 -118 -38
-204 1 -77 6 -109 28 -170 16 -41 31 -104 35 -140 l7 -64 -82 -171 -82 -170
30 -3 29 -3 -5 -62 c-13 -144 -17 -420 -18 -1232 0 -473 0 -868 1 -877 1 -14
10 -18 46 -18 l44 0 3 -277 c2 -153 1 -354 -2 -448 -8 -298 -5 -487 8 -595
l13 -104 -42 -116 c-23 -63 -52 -142 -64 -175 -39 -102 -39 -105 -16 -105 l21
0 0 -737 c-1 -672 -4 -852 -26 -1290 l-7 -143 30 -6 c28 -5 32 -11 38 -53 3
-25 25 -86 48 -136 37 -80 42 -98 42 -165 0 -68 -4 -84 -42 -163 -76 -158 -75
-242 4 -403 41 -85 48 -107 48 -159 -1 -61 -9 -85 -81 -219 -15 -28 -29 -70
-32 -95 -3 -26 -8 -48 -12 -51 -11 -7 -20 -368 -10 -372 12 -4 37 -401 50
-793 6 -181 15 -406 20 -500 18 -317 40 -630 50 -710 6 -44 10 -101 10 -127 0
-34 5 -50 17 -56 15 -9 15 -15 5 -49 -7 -22 -25 -57 -42 -79 -112 -145 -130
-209 -90 -316 11 -29 38 -75 61 -103 46 -55 78 -118 79 -152 0 -17 6 -23 24
-23 22 0 23 2 15 45 -11 56 -19 73 -82 159 -85 115 -91 192 -21 292 82 117 96
143 101 184 3 23 12 44 19 47 14 5 15 -1 -11 209 -44 350 -46 398 -57 1144 -6
410 -11 772 -10 805 1 61 -51 363 -70 401 -14 29 2 81 50 163 55 91 65 130 60
217 -4 62 -12 87 -54 170 -46 92 -49 103 -49 174 0 68 4 83 42 160 74 151 75
244 6 389 -20 41 -38 93 -41 117 -5 44 -4 44 27 44 17 0 31 4 31 8 0 5 9 127
20 273 23 308 37 695 45 1214 3 204 8 443 11 533 6 152 8 162 26 162 16 0 18
4 12 23 -4 12 -29 92 -56 177 -33 102 -53 184 -58 240 -4 47 -14 136 -21 199
-10 91 -10 141 0 247 9 95 10 243 5 528 l-7 396 36 0 c72 0 66 -89 68 943 1
513 4 1000 8 1082 6 146 7 150 29 153 28 4 28 22 -4 97 -14 33 -34 87 -46 120
-11 33 -27 73 -35 90 -9 17 -17 61 -18 105 -2 53 -12 101 -34 164 -44 127 -43
196 6 335 32 92 37 117 37 191 -1 74 -6 97 -39 180 -34 83 -39 106 -39 180 -1
79 2 92 42 181 27 63 42 111 42 138 l0 41 44 0 c25 0 48 4 51 10 3 5 1 72 -5
147 -22 275 -30 467 -40 973 -9 466 -18 700 -36 966 -6 87 -6 91 15 97 20 5
19 8 -25 104 -106 226 -125 277 -119 310 3 18 33 72 65 120 101 147 103 239 9
373 -62 88 -79 127 -79 182 0 52 25 109 78 180 53 70 72 119 72 183 0 66 -15
102 -80 190 -56 76 -70 103 -70 141 0 21 5 24 34 24 l33 0 17 163 c29 280 35
388 45 897 16 719 29 1072 42 1110 17 47 5 346 -16 430 -21 79 -25 87 -75 145
-106 122 -110 211 -18 331 81 106 114 204 69 204 -13 0 -22 -12 -31 -46z m54
-696 c3 -7 7 -88 10 -180 5 -162 5 -168 -14 -168 -16 0 -20 7 -21 33 -2 30 -2
30 -6 5 -2 -16 -9 -28 -14 -28 -5 0 -8 -21 -7 -47 1 -44 2 -45 5 -10 3 29 9
37 24 37 22 0 22 5 9 -190 -6 -80 -15 -424 -20 -765 -10 -581 -15 -706 -51
-1076 l-12 -127 -84 -1 c-76 -1 -83 0 -83 18 0 20 12 117 30 241 19 130 50
623 60 950 11 365 24 608 45 825 7 77 9 144 5 148 -6 7 38 186 70 283 5 17 10
38 10 47 0 20 39 24 44 5z m-103 -2710 c11 -21 11 -22 -4 -9 -10 7 -17 17 -17
22 0 15 9 10 21 -13z m34 -325 c-19 -34 -85 -117 -85 -108 0 8 92 135 97 135
2 0 -3 -12 -12 -27z m0 -448 l16 -30 -20 25 c-33 39 -81 112 -81 123 0 11 64
-77 85 -118z m26 -229 c-13 -32 -111 -173 -111 -159 0 6 16 33 35 59 19 27 45
68 57 91 24 46 35 52 19 9z m-87 -348 c19 -40 54 -117 79 -170 29 -62 41 -98
33 -98 -7 0 -45 71 -85 158 -90 192 -86 182 -72 182 7 0 27 -33 45 -72z m20
-116 c36 -79 66 -148 66 -153 0 -5 -7 -9 -15 -9 -11 0 -15 -10 -13 -37 1 -37
1 -37 5 -5 2 17 8 32 12 32 22 0 38 -264 50 -835 6 -253 12 -539 14 -635 3
-119 2 -148 -3 -90 -6 69 -7 59 -4 -49 7 -246 7 -245 15 -156 5 64 6 53 4 -55
-1 -74 1 -121 5 -105 4 17 5 -15 2 -69 -3 -58 -1 -97 4 -94 5 4 7 -13 5 -38
l-3 -44 -94 0 c-83 0 -94 2 -94 18 0 9 -7 103 -15 207 -17 214 -31 675 -40
1240 -3 209 -10 439 -15 510 -5 72 -9 145 -10 163 0 25 -4 32 -20 32 -25 0
-25 12 0 92 11 34 20 70 20 78 0 30 43 161 50 153 4 -4 38 -72 74 -151z m63
-2394 c-3 -7 -5 -2 -5 12 0 14 2 19 5 13 2 -7 2 -19 0 -25z m-39 -135 c-19
-43 -40 -89 -46 -103 -7 -16 -11 -19 -11 -8 -1 9 13 47 30 85 17 37 35 79 40
92 5 13 12 21 15 18 3 -3 -10 -41 -28 -84z m-10 -374 c34 -87 47 -133 34 -125
-6 3 -13 18 -17 33 -3 16 -22 70 -41 121 -19 51 -31 98 -27 105 4 7 10 -2 15
-24 4 -20 20 -70 36 -110z m37 -254 c-6 -24 -69 -218 -72 -224 -2 -2 -5 -2 -8
1 -3 3 10 50 30 104 19 55 35 115 35 134 0 26 3 31 10 20 5 -8 7 -24 5 -35z
m-65 -370 c0 -8 14 -56 30 -106 17 -51 29 -99 27 -108 -2 -10 -7 -5 -11 14 -5
17 -21 72 -37 123 -33 103 -33 106 -19 97 6 -3 10 -13 10 -20z m116 -452 c4
-13 21 -58 40 -101 l34 -77 -24 -3 c-22 -3 -24 -8 -30 -100 -6 -73 -16 -1334
-16 -2019 l0 -63 -90 0 -90 0 -2 328 -3 327 -6 -325 c-3 -179 -4 31 -2 465 2
435 6 926 9 1093 l6 302 -21 0 c-12 0 -21 2 -21 4 0 3 34 76 76 163 l76 158
29 -65 c16 -35 32 -75 35 -87z m-87 -2552 c0 -66 -4 -132 -9 -148 -5 -18 -9
22 -9 120 -1 83 3 147 8 147 5 0 9 -54 10 -119z m3 -483 c-10 -10 -24 231 -14
247 4 5 11 -46 15 -114 5 -73 4 -128 -1 -133z m-7 -245 c-9 -157 -26 -235 -20
-96 5 115 15 213 22 213 3 0 2 -53 -2 -117z m5 -343 c6 -58 13 -118 15 -135 3
-20 2 -25 -4 -15 -5 8 -12 42 -15 75 -4 33 -10 87 -15 120 -5 33 -6 64 -3 70
7 12 8 10 22 -115z m17 -222 c-2 -7 -31 -88 -63 -180 -36 -102 -64 -168 -72
-168 -15 0 -12 14 24 106 13 33 24 64 24 68 0 4 11 35 24 69 14 34 30 74 35
90 6 15 16 27 22 27 6 0 9 -6 6 -12z m67 -179 c25 -80 46 -149 46 -152 0 -4
-9 -7 -20 -7 -19 0 -20 -7 -20 -102 -2 -576 -26 -1434 -51 -1758 -5 -74 -13
-177 -16 -227 l-6 -93 -48 0 -49 0 -2 73 -2 72 -3 -72 c-4 -66 -6 -73 -25 -73
-20 0 -21 3 -15 93 23 318 29 559 31 1187 4 945 3 883 21 876 8 -3 15 -1 15 4
0 6 -7 10 -15 10 -8 0 -15 4 -15 8 0 5 23 71 51 148 27 76 53 147 56 157 9 30
19 9 67 -144z m-45 -2638 c0 -20 -5 -14 -19 24 -10 28 -29 73 -44 101 -14 29
-26 58 -25 65 1 25 89 -164 88 -190z m-30 -229 c-18 -37 -41 -87 -51 -112 -17
-41 -18 -42 -13 -11 3 19 23 71 45 116 22 45 41 89 41 96 1 8 3 6 6 -4 3 -11
-10 -49 -28 -85z m5 -415 c20 -38 36 -76 36 -84 0 -28 -99 175 -105 214 -5 36
-4 35 14 -12 10 -27 35 -81 55 -118z m17 -272 c-11 -25 -30 -60 -43 -77 -12
-18 -30 -55 -40 -82 -15 -42 -17 -45 -13 -16 3 19 16 55 30 80 14 25 37 69 51
98 32 65 44 62 15 -3z m-81 -296 c0 -22 4 -38 8 -35 17 10 53 -227 57 -374 10
-460 14 -912 7 -890 -5 14 -12 133 -16 265 -7 260 -32 678 -43 710 -3 11 -9
70 -13 130 l-6 110 -2 -107 c-2 -101 -3 -108 -22 -108 -19 0 -20 7 -20 148 0
167 4 192 31 192 16 0 19 -8 19 -41z m10 -342 c0 -13 7 -120 15 -238 8 -118
19 -362 25 -544 5 -181 13 -365 16 -407 5 -62 3 -78 -7 -78 -10 0 -11 -3 -3
-8 7 -4 17 -73 25 -175 10 -144 10 -170 -2 -178 -12 -7 -11 -9 1 -9 13 0 18
-26 29 -132 17 -164 17 -167 30 -253 16 -105 14 -125 -8 -125 -24 0 -27 12
-36 114 -5 61 -4 81 7 88 10 8 10 9 -3 5 -13 -4 -18 10 -28 89 -24 196 -50
600 -60 919 -6 182 -13 373 -16 425 -15 274 -26 449 -31 488 -5 40 -4 42 20
42 21 0 26 -5 26 -23z m67 -1009 c-3 -8 -6 -5 -6 6 -1 11 2 17 5 13 3 -3 4
-12 1 -19z m10 -1080 c-3 -8 -6 -5 -6 6 -1 11 2 17 5 13 3 -3 4 -12 1 -19z
m-67 -582 c0 -6 -7 -1 -15 10 -8 10 -15 23 -15 28 0 6 7 1 15 -10 8 -10 15
-23 15 -28z m71 -88 c8 -15 8 -18 0 -14 -6 4 -16 16 -22 28 -8 15 -8 18 0 14
6 -4 16 -16 22 -28z M364 19095 c0 -66 1 -92 3 -57 2 34 2 88 0 120 -2 31 -3
3 -3 -63z M343 18740 c0 -47 2 -66 4 -42 2 23 2 61 0 85 -2 23 -4 4 -4 -43z
M334 18535 c0 -66 1 -92 3 -57 2 34 2 88 0 120 -2 31 -3 3 -3 -63z M325 17900
c0 -228 1 -322 2 -207 2 114 2 300 0 415 -1 114 -2 20 -2 -208z M314 17355 c0
-49 1 -71 3 -48 2 23 2 64 0 90 -2 26 -3 8 -3 -42z M303 17175 c0 -38 2 -53 4
-32 2 20 2 52 0 70 -2 17 -4 1 -4 -38z M293 17030 c0 -25 2 -35 4 -22 2 12 2
32 0 45 -2 12 -4 2 -4 -23z M283 16935 c0 -27 2 -38 4 -22 2 15 2 37 0 50 -2
12 -4 0 -4 -28z M273 16830 c0 -25 2 -35 4 -22 2 12 2 32 0 45 -2 12 -4 2 -4
-23z M343 14800 c0 -25 2 -35 4 -22 2 12 2 32 0 45 -2 12 -4 2 -4 -23z M353
14650 c0 -25 2 -35 4 -22 2 12 2 32 0 45 -2 12 -4 2 -4 -23z M363 14495 c0
-38 2 -53 4 -32 2 20 2 52 0 70 -2 17 -4 1 -4 -38z M372 14380 c0 -14 2 -19 5
-12 2 6 2 18 0 25 -3 6 -5 1 -5 -13z M374 14250 c0 -52 1 -74 3 -47 2 26 2 68
0 95 -2 26 -3 4 -3 -48z M384 13935 c0 -88 2 -123 3 -77 2 46 2 118 0 160 -1
42 -3 5 -3 -83z M394 13550 c0 -58 1 -81 3 -52 2 28 2 76 0 105 -2 28 -3 5 -3
-53z M211 9674 c0 -11 3 -14 6 -6 3 7 2 16 -1 19 -3 4 -6 -2 -5 -13z M213
9500 c0 -30 2 -43 4 -27 2 15 2 39 0 55 -2 15 -4 2 -4 -28z M243 6680 c0 -25
2 -35 4 -22 2 12 2 32 0 45 -2 12 -4 2 -4 -23z M254 5830 c0 -168 2 -236 3
-152 2 83 2 221 0 305 -1 83 -3 15 -3 -153z M244 5245 c0 -55 1 -76 3 -47 2
29 2 74 0 100 -2 26 -3 2 -3 -53z M233 4980 c0 -41 2 -58 4 -37 2 20 2 54 0
75 -2 20 -4 3 -4 -38z"/>
</g>
</svg>
